<svg width="0" height="0" fill="none" style="visibility: hidden; position: absolute;" aria-hidden="true">
    <symbol id="add" width="24" height="24" viewBox="0 0 24 24" fill="none" xmlns="http://www.w3.org/2000/svg">
        <mask id="mask0_734_7318__add" style="mask-type:alpha" maskUnits="userSpaceOnUse" x="0" y="0" width="24" height="24">
            <rect width="24" height="24" fill="currentColor"/>
        </mask>
        <g mask="url(#mask0_734_7318__add)">
            <path d="M11 21V13H3V11H11V3H13V11H21V13H13V21H11Z" fill="currentColor"/>
        </g>
    </symbol>
    <symbol id="arrow_bottom" width="24" height="24" viewBox="0 0 24 24" fill="none" xmlns="http://www.w3.org/2000/svg">
        <mask id="mask0_734_7316__arrow_bottom" style="mask-type:alpha" maskUnits="userSpaceOnUse" x="-1" y="0" width="25" height="24">
            <rect x="-0.126953" width="24" height="24" fill="currentColor"/>
        </mask>
        <g mask="url(#mask0_734_7316__arrow_bottom)">
            <path d="M21.7606 7.88751L11.7606 17.8875L1.76056 7.88751L3.53556 6.11251L11.7606 14.3375L19.9856 6.11251L21.7606 7.88751Z" fill="currentColor"/>
        </g>
    </symbol>
    <symbol id="arrow_circle_left" width="24" height="24" viewBox="0 0 24 24" fill="none" xmlns="http://www.w3.org/2000/svg">
        <mask id="mask0_734_7330__arrow_circle_left" style="mask-type:alpha" maskUnits="userSpaceOnUse" x="0" y="0" width="25" height="25">
            <rect width="24" height="24" transform="matrix(-1 0 0 1 24.4327 0.355713)" fill="currentColor"/>
        </mask>
        <g mask="url(#mask0_734_7330__arrow_circle_left)">
            <path d="M11.325 12L14.4 15.075L13 16.5L8.5 12L13 7.5L14.4 8.925L11.325 12ZM12 22C13.3833 22 14.6833 21.7375 15.9 21.2125C17.1167 20.6875 18.175 19.975 19.075 19.075C19.975 18.175 20.6875 17.1167 21.2125 15.9C21.7375 14.6833 22 13.3833 22 12C22 10.6167 21.7375 9.31667 21.2125 8.1C20.6875 6.88333 19.975 5.825 19.075 4.925C18.175 4.025 17.1167 3.3125 15.9 2.7875C14.6833 2.2625 13.3833 2 12 2C10.6167 2 9.31667 2.2625 8.1 2.7875C6.88333 3.3125 5.825 4.025 4.925 4.925C4.025 5.825 3.3125 6.88333 2.7875 8.1C2.2625 9.31667 2 10.6167 2 12C2 13.3833 2.2625 14.6833 2.7875 15.9C3.3125 17.1167 4.025 18.175 4.925 19.075C5.825 19.975 6.88333 20.6875 8.1 21.2125C9.31667 21.7375 10.6167 22 12 22Z" fill="currentColor"/>
        </g>
    </symbol>
    <symbol id="arrow_circle_right" width="24" height="24" viewBox="0 0 24 24" fill="none" xmlns="http://www.w3.org/2000/svg">
        <mask id="mask0_734_7331__arrow_circle_right" style="mask-type:alpha" maskUnits="userSpaceOnUse" x="0" y="0" width="24" height="24">
            <rect x="6.10352e-05" width="24" height="24" fill="currentColor"/>
        </mask>
        <g mask="url(#mask0_734_7331__arrow_circle_right)">
            <path d="M12.6751 12L9.60006 15.075L11.0001 16.5L15.5001 12L11.0001 7.5L9.60006 8.925L12.6751 12ZM12.0001 22C10.6167 22 9.31673 21.7375 8.10006 21.2125C6.88339 20.6875 5.82506 19.975 4.92506 19.075C4.02506 18.175 3.31256 17.1167 2.78756 15.9C2.26256 14.6833 2.00006 13.3833 2.00006 12C2.00006 10.6167 2.26256 9.31667 2.78756 8.1C3.31256 6.88333 4.02506 5.825 4.92506 4.925C5.82506 4.025 6.88339 3.3125 8.10006 2.7875C9.31673 2.2625 10.6167 2 12.0001 2C13.3834 2 14.6834 2.2625 15.9001 2.7875C17.1167 3.3125 18.1751 4.025 19.0751 4.925C19.9751 5.825 20.6876 6.88333 21.2126 8.1C21.7376 9.31667 22.0001 10.6167 22.0001 12C22.0001 13.3833 21.7376 14.6833 21.2126 15.9C20.6876 17.1167 19.9751 18.175 19.0751 19.075C18.1751 19.975 17.1167 20.6875 15.9001 21.2125C14.6834 21.7375 13.3834 22 12.0001 22Z" fill="currentColor"/>
        </g>
    </symbol>
    <symbol id="arrow_left" width="24" height="24" viewBox="0 0 24 24" fill="none" xmlns="http://www.w3.org/2000/svg">
        <mask id="mask0_734_7317__arrow_left" style="mask-type:alpha" maskUnits="userSpaceOnUse" x="0" y="0" width="24" height="24">
            <rect width="24" height="24" fill="currentColor"/>
        </mask>
        <g mask="url(#mask0_734_7317__arrow_left)">
            <path d="M16 22L6 12L16 2L17.775 3.775L9.55 12L17.775 20.225L16 22Z" fill="currentColor"/>
        </g>
    </symbol>
    <symbol id="arrow_right" width="24" height="24" viewBox="0 0 24 24" fill="none" xmlns="http://www.w3.org/2000/svg">
        <mask id="mask0_734_7315__arrow_right" style="mask-type:alpha" maskUnits="userSpaceOnUse" x="0" y="0" width="24" height="24">
            <rect width="24" height="24" fill="currentColor"/>
        </mask>
        <g mask="url(#mask0_734_7315__arrow_right)">
            <path d="M8.025 22L6.25 20.225L14.475 12L6.25 3.775L8.025 2L18.025 12L8.025 22Z" fill="currentColor"/>
        </g>
    </symbol>
    <symbol id="arrow_top" width="24" height="24" viewBox="0 0 24 24" fill="none" xmlns="http://www.w3.org/2000/svg">
        <mask id="mask0_734_7313__arrow_top" style="mask-type:alpha" maskUnits="userSpaceOnUse" x="0" y="0" width="25" height="24">
            <rect x="0.123047" width="24" height="24" fill="currentColor"/>
        </mask>
        <g mask="url(#mask0_734_7313__arrow_top)">
            <path d="M2.0105 16.1125L12.0105 6.11249L22.0105 16.1125L20.2355 17.8875L12.0105 9.66249L3.7855 17.8875L2.0105 16.1125Z" fill="currentColor"/>
        </g>
    </symbol>
    <symbol id="calendar" width="24" height="24" viewBox="0 0 24 24" fill="none" xmlns="http://www.w3.org/2000/svg">
        <mask id="mask0_734_7342__calendar" style="mask-type:alpha" maskUnits="userSpaceOnUse" x="0" y="0" width="24" height="24">
            <rect width="24" height="24" fill="currentColor"/>
        </mask>
        <g mask="url(#mask0_734_7342__calendar)">
            <path d="M5 22C4.45 22 3.97917 21.8042 3.5875 21.4125C3.19583 21.0208 3 20.55 3 20V6C3 5.45 3.19583 4.97917 3.5875 4.5875C3.97917 4.19583 4.45 4 5 4H6V2H8V4H16V2H18V4H19C19.55 4 20.0208 4.19583 20.4125 4.5875C20.8042 4.97917 21 5.45 21 6V20C21 20.55 20.8042 21.0208 20.4125 21.4125C20.0208 21.8042 19.55 22 19 22H5ZM5 20H19V10H5V20ZM5 8H19V6H5V8ZM12 14C11.7167 14 11.4792 13.9042 11.2875 13.7125C11.0958 13.5208 11 13.2833 11 13C11 12.7167 11.0958 12.4792 11.2875 12.2875C11.4792 12.0958 11.7167 12 12 12C12.2833 12 12.5208 12.0958 12.7125 12.2875C12.9042 12.4792 13 12.7167 13 13C13 13.2833 12.9042 13.5208 12.7125 13.7125C12.5208 13.9042 12.2833 14 12 14ZM8 14C7.71667 14 7.47917 13.9042 7.2875 13.7125C7.09583 13.5208 7 13.2833 7 13C7 12.7167 7.09583 12.4792 7.2875 12.2875C7.47917 12.0958 7.71667 12 8 12C8.28333 12 8.52083 12.0958 8.7125 12.2875C8.90417 12.4792 9 12.7167 9 13C9 13.2833 8.90417 13.5208 8.7125 13.7125C8.52083 13.9042 8.28333 14 8 14ZM16 14C15.7167 14 15.4792 13.9042 15.2875 13.7125C15.0958 13.5208 15 13.2833 15 13C15 12.7167 15.0958 12.4792 15.2875 12.2875C15.4792 12.0958 15.7167 12 16 12C16.2833 12 16.5208 12.0958 16.7125 12.2875C16.9042 12.4792 17 12.7167 17 13C17 13.2833 16.9042 13.5208 16.7125 13.7125C16.5208 13.9042 16.2833 14 16 14ZM12 18C11.7167 18 11.4792 17.9042 11.2875 17.7125C11.0958 17.5208 11 17.2833 11 17C11 16.7167 11.0958 16.4792 11.2875 16.2875C11.4792 16.0958 11.7167 16 12 16C12.2833 16 12.5208 16.0958 12.7125 16.2875C12.9042 16.4792 13 16.7167 13 17C13 17.2833 12.9042 17.5208 12.7125 17.7125C12.5208 17.9042 12.2833 18 12 18ZM8 18C7.71667 18 7.47917 17.9042 7.2875 17.7125C7.09583 17.5208 7 17.2833 7 17C7 16.7167 7.09583 16.4792 7.2875 16.2875C7.47917 16.0958 7.71667 16 8 16C8.28333 16 8.52083 16.0958 8.7125 16.2875C8.90417 16.4792 9 16.7167 9 17C9 17.2833 8.90417 17.5208 8.7125 17.7125C8.52083 17.9042 8.28333 18 8 18ZM16 18C15.7167 18 15.4792 17.9042 15.2875 17.7125C15.0958 17.5208 15 17.2833 15 17C15 16.7167 15.0958 16.4792 15.2875 16.2875C15.4792 16.0958 15.7167 16 16 16C16.2833 16 16.5208 16.0958 16.7125 16.2875C16.9042 16.4792 17 16.7167 17 17C17 17.2833 16.9042 17.5208 16.7125 17.7125C16.5208 17.9042 16.2833 18 16 18Z" fill="currentColor"/>
        </g>
    </symbol>
    <symbol id="checkbox_off" width="24" height="24" viewBox="0 0 24 24" fill="none" xmlns="http://www.w3.org/2000/svg">
        <mask id="mask0_734_7332__checkbox_off" style="mask-type:alpha" maskUnits="userSpaceOnUse" x="0" y="0" width="25" height="25">
            <rect x="0.0837402" y="0.224121" width="24" height="24" fill="currentColor"/>
        </mask>
        <g mask="url(#mask0_734_7332__checkbox_off)">
            <path d="M5.08374 21.2241C4.53374 21.2241 4.06291 21.0283 3.67124 20.6366C3.27957 20.245 3.08374 19.7741 3.08374 19.2241V5.22412C3.08374 4.67412 3.27957 4.20329 3.67124 3.81162C4.06291 3.41995 4.53374 3.22412 5.08374 3.22412H19.0837C19.6337 3.22412 20.1046 3.41995 20.4962 3.81162C20.8879 4.20329 21.0837 4.67412 21.0837 5.22412V19.2241C21.0837 19.7741 20.8879 20.245 20.4962 20.6366C20.1046 21.0283 19.6337 21.2241 19.0837 21.2241H5.08374ZM5.08374 19.2241H19.0837V5.22412H5.08374V19.2241Z" fill="currentColor"/>
        </g>
    </symbol>
    <symbol id="checkbox_on" width="24" height="24" viewBox="0 0 24 24" fill="none" xmlns="http://www.w3.org/2000/svg">
        <mask id="mask0_734_7333__checkbox_on" style="mask-type:alpha" maskUnits="userSpaceOnUse" x="0" y="0" width="25" height="25">
            <rect x="0.38208" y="0.260254" width="24" height="24" fill="currentColor"/>
        </mask>
        <g mask="url(#mask0_734_7333__checkbox_on)">
            <path d="M10.9821 16.4603L18.0321 9.41025L16.6321 8.01025L10.9821 13.6603L8.13208 10.8103L6.73208 12.2103L10.9821 16.4603ZM5.38208 21.2603C4.83208 21.2603 4.36125 21.0644 3.96958 20.6728C3.57791 20.2811 3.38208 19.8103 3.38208 19.2603V5.26025C3.38208 4.71025 3.57791 4.23942 3.96958 3.84775C4.36125 3.45609 4.83208 3.26025 5.38208 3.26025H19.3821C19.9321 3.26025 20.4029 3.45609 20.7946 3.84775C21.1862 4.23942 21.3821 4.71025 21.3821 5.26025V19.2603C21.3821 19.8103 21.1862 20.2811 20.7946 20.6728C20.4029 21.0644 19.9321 21.2603 19.3821 21.2603H5.38208Z" fill="currentColor"/>
        </g>
    </symbol>
    <symbol id="chevron_bottom" width="24" height="24" viewBox="0 0 24 24" fill="none" xmlns="http://www.w3.org/2000/svg">
        <mask id="mask0_734_7325__chevron_bottom" style="mask-type:alpha" maskUnits="userSpaceOnUse" x="0" y="0" width="24" height="24">
            <rect width="24" height="24" fill="currentColor"/>
        </mask>
        <g mask="url(#mask0_734_7325__chevron_bottom)">
            <path d="M11.7 12.9L16.3 8.29999L17.7 9.69999L11.7 15.7L5.70001 9.69999L7.10001 8.29999L11.7 12.9Z" fill="currentColor"/>
        </g>
    </symbol>
    <symbol id="chevron_left" width="24" height="24" viewBox="0 0 24 24" fill="none" xmlns="http://www.w3.org/2000/svg">
        <mask id="mask0_734_7322__chevron_left" style="mask-type:alpha" maskUnits="userSpaceOnUse" x="0" y="0" width="24" height="24">
            <rect width="24" height="24" fill="currentColor"/>
        </mask>
        <g mask="url(#mask0_734_7322__chevron_left)">
            <path d="M14 18L8 12L14 6L15.4 7.4L10.8 12L15.4 16.6L14 18Z" fill="currentColor"/>
        </g>
    </symbol>
    <symbol id="chevron_right" width="24" height="24" viewBox="0 0 24 24" fill="none" xmlns="http://www.w3.org/2000/svg">
        <mask id="mask0_734_7323__chevron_right" style="mask-type:alpha" maskUnits="userSpaceOnUse" x="0" y="0" width="24" height="24">
            <rect width="24" height="24" fill="currentColor"/>
        </mask>
        <g mask="url(#mask0_734_7323__chevron_right)">
            <path d="M12.6 12L8 7.4L9.4 6L15.4 12L9.4 18L8 16.6L12.6 12Z" fill="currentColor"/>
        </g>
    </symbol>
    <symbol id="chevron_top" width="24" height="24" viewBox="0 0 24 24" fill="none" xmlns="http://www.w3.org/2000/svg">
        <mask id="mask0_734_7324__chevron_top" style="mask-type:alpha" maskUnits="userSpaceOnUse" x="0" y="0" width="24" height="24">
            <rect width="24" height="24" fill="currentColor"/>
        </mask>
        <g mask="url(#mask0_734_7324__chevron_top)">
            <path d="M11.7 11.1L7.10001 15.7L5.70001 14.3L11.7 8.30001L17.7 14.3L16.3 15.7L11.7 11.1Z" fill="currentColor"/>
        </g>
    </symbol>
    <symbol id="close" width="24" height="24" viewBox="0 0 24 24" fill="none" xmlns="http://www.w3.org/2000/svg">
        <mask id="mask0_734_7319__close" style="mask-type:alpha" maskUnits="userSpaceOnUse" x="0" y="0" width="24" height="24">
            <rect width="24" height="24" fill="currentColor"/>
        </mask>
        <g mask="url(#mask0_734_7319__close)">
            <path d="M6.4 19L5 17.6L10.6 12L5 6.4L6.4 5L12 10.6L17.6 5L19 6.4L13.4 12L19 17.6L17.6 19L12 13.4L6.4 19Z" fill="currentColor"/>
        </g>
    </symbol>
    <symbol id="cultural" width="24" height="24" viewBox="0 0 24 24" fill="none" xmlns="http://www.w3.org/2000/svg">
        <mask id="mask0_1571_6836__cultural" style="mask-type:alpha" maskUnits="userSpaceOnUse" x="0" y="0" width="24" height="24">
            <rect width="24" height="24" fill="white"/>
        </mask>
        <g mask="url(#mask0_1571_6836__cultural)">
            <path d="M19.0001 7.50024C19.2834 7.50024 19.5209 7.40441 19.7126 7.21274C19.9042 7.02108 20.0001 6.78358 20.0001 6.50024C20.0001 6.21691 19.9042 5.97941 19.7126 5.78774C19.5209 5.59608 19.2834 5.50024 19.0001 5.50024C18.7167 5.50024 18.4792 5.59608 18.2876 5.78774C18.0959 5.97941 18.0001 6.21691 18.0001 6.50024C18.0001 6.78358 18.0959 7.02108 18.2876 7.21274C18.4792 7.40441 18.7167 7.50024 19.0001 7.50024ZM15.0001 7.50024C15.2834 7.50024 15.5209 7.40441 15.7126 7.21274C15.9042 7.02108 16.0001 6.78358 16.0001 6.50024C16.0001 6.21691 15.9042 5.97941 15.7126 5.78774C15.5209 5.59608 15.2834 5.50024 15.0001 5.50024C14.7167 5.50024 14.4792 5.59608 14.2876 5.78774C14.0959 5.97941 14.0001 6.21691 14.0001 6.50024C14.0001 6.78358 14.0959 7.02108 14.2876 7.21274C14.4792 7.40441 14.7167 7.50024 15.0001 7.50024ZM14.5001 10.9002H19.5001C19.5001 10.3169 19.2459 9.85441 18.7376 9.51274C18.2292 9.17108 17.6501 9.00024 17.0001 9.00024C16.3501 9.00024 15.7709 9.17108 15.2626 9.51274C14.7542 9.85441 14.5001 10.3169 14.5001 10.9002ZM7.00006 22.0002C5.33339 22.0002 3.91673 21.4169 2.75006 20.2502C1.58339 19.0836 1.00006 17.6669 1.00006 16.0002V9.00024H13.0001V16.0002C13.0001 17.6669 12.4167 19.0836 11.2501 20.2502C10.0834 21.4169 8.66673 22.0002 7.00006 22.0002ZM7.00006 20.0002C8.10006 20.0002 9.04173 19.6086 9.82506 18.8252C10.6084 18.0419 11.0001 17.1002 11.0001 16.0002V11.0002H3.00006V16.0002C3.00006 17.1002 3.39173 18.0419 4.17506 18.8252C4.95839 19.6086 5.90006 20.0002 7.00006 20.0002ZM17.0001 15.0002C16.5667 15.0002 16.1376 14.9544 15.7126 14.8627C15.2876 14.7711 14.8834 14.6336 14.5001 14.4502V12.1002C14.8667 12.3836 15.2626 12.6044 15.6876 12.7627C16.1126 12.9211 16.5501 13.0002 17.0001 13.0002C18.1001 13.0002 19.0417 12.6086 19.8251 11.8252C20.6084 11.0419 21.0001 10.1002 21.0001 9.00024V4.00024H13.0001V7.50024H11.0001V2.00024H23.0001V9.00024C23.0001 10.6669 22.4167 12.0836 21.2501 13.2502C20.0834 14.4169 18.6667 15.0002 17.0001 15.0002ZM5.00006 14.5002C5.28339 14.5002 5.5209 14.4044 5.71256 14.2127C5.90423 14.0211 6.00006 13.7836 6.00006 13.5002C6.00006 13.2169 5.90423 12.9794 5.71256 12.7877C5.5209 12.5961 5.28339 12.5002 5.00006 12.5002C4.71673 12.5002 4.47923 12.5961 4.28756 12.7877C4.09589 12.9794 4.00006 13.2169 4.00006 13.5002C4.00006 13.7836 4.09589 14.0211 4.28756 14.2127C4.47923 14.4044 4.71673 14.5002 5.00006 14.5002ZM9.00006 14.5002C9.2834 14.5002 9.5209 14.4044 9.71256 14.2127C9.90423 14.0211 10.0001 13.7836 10.0001 13.5002C10.0001 13.2169 9.90423 12.9794 9.71256 12.7877C9.5209 12.5961 9.2834 12.5002 9.00006 12.5002C8.71673 12.5002 8.47923 12.5961 8.28756 12.7877C8.0959 12.9794 8.00006 13.2169 8.00006 13.5002C8.00006 13.7836 8.0959 14.0211 8.28756 14.2127C8.47923 14.4044 8.71673 14.5002 9.00006 14.5002ZM7.00006 17.9002C7.65006 17.9002 8.22923 17.7294 8.73756 17.3877C9.2459 17.0461 9.50006 16.5836 9.50006 16.0002H4.50006C4.50006 16.5836 4.75423 17.0461 5.26256 17.3877C5.7709 17.7294 6.35006 17.9002 7.00006 17.9002Z" fill="currentColor"/>
        </g>
    </symbol>
    <symbol id="customer" width="24" height="24" viewBox="0 0 24 24" fill="none" xmlns="http://www.w3.org/2000/svg">
        <mask id="mask0_734_7349__customer" style="mask-type:alpha" maskUnits="userSpaceOnUse" x="0" y="0" width="24" height="24">
            <rect width="24" height="24" fill="currentColor"/>
        </mask>
        <g mask="url(#mask0_734_7349__customer)">
            <path d="M11 21V19H19V11.9C19 9.95 18.3208 8.29583 16.9625 6.9375C15.6042 5.57917 13.95 4.9 12 4.9C10.05 4.9 8.39583 5.57917 7.0375 6.9375C5.67917 8.29583 5 9.95 5 11.9V18H4C3.45 18 2.97917 17.8042 2.5875 17.4125C2.19583 17.0208 2 16.55 2 16V14C2 13.65 2.0875 13.3208 2.2625 13.0125C2.4375 12.7042 2.68333 12.4583 3 12.275L3.075 10.95C3.20833 9.81667 3.5375 8.76667 4.0625 7.8C4.5875 6.83333 5.24583 5.99167 6.0375 5.275C6.82917 4.55833 7.7375 4 8.7625 3.6C9.7875 3.2 10.8667 3 12 3C13.1333 3 14.2083 3.2 15.225 3.6C16.2417 4 17.15 4.55417 17.95 5.2625C18.75 5.97083 19.4083 6.80833 19.925 7.775C20.4417 8.74167 20.775 9.79167 20.925 10.925L21 12.225C21.3167 12.375 21.5625 12.6 21.7375 12.9C21.9125 13.2 22 13.5167 22 13.85V16.15C22 16.4833 21.9125 16.8 21.7375 17.1C21.5625 17.4 21.3167 17.625 21 17.775V19C21 19.55 20.8042 20.0208 20.4125 20.4125C20.0208 20.8042 19.55 21 19 21H11ZM9 14C8.71667 14 8.47917 13.9042 8.2875 13.7125C8.09583 13.5208 8 13.2833 8 13C8 12.7167 8.09583 12.4792 8.2875 12.2875C8.47917 12.0958 8.71667 12 9 12C9.28333 12 9.52083 12.0958 9.7125 12.2875C9.90417 12.4792 10 12.7167 10 13C10 13.2833 9.90417 13.5208 9.7125 13.7125C9.52083 13.9042 9.28333 14 9 14ZM15 14C14.7167 14 14.4792 13.9042 14.2875 13.7125C14.0958 13.5208 14 13.2833 14 13C14 12.7167 14.0958 12.4792 14.2875 12.2875C14.4792 12.0958 14.7167 12 15 12C15.2833 12 15.5208 12.0958 15.7125 12.2875C15.9042 12.4792 16 12.7167 16 13C16 13.2833 15.9042 13.5208 15.7125 13.7125C15.5208 13.9042 15.2833 14 15 14ZM6.025 12.45C5.90833 10.6833 6.44167 9.16667 7.625 7.9C8.80833 6.63333 10.2833 6 12.05 6C13.5333 6 14.8375 6.47083 15.9625 7.4125C17.0875 8.35417 17.7667 9.55833 18 11.025C16.4833 11.0083 15.0875 10.6 13.8125 9.8C12.5375 9 11.5583 7.91667 10.875 6.55C10.6083 7.88333 10.0458 9.07083 9.1875 10.1125C8.32917 11.1542 7.275 11.9333 6.025 12.45Z" fill="currentColor"/>
        </g>
    </symbol>
    <symbol id="delete" width="24" height="24" viewBox="0 0 24 24" fill="none" xmlns="http://www.w3.org/2000/svg">
        <mask id="mask0_734_7351__delete" style="mask-type:alpha" maskUnits="userSpaceOnUse" x="0" y="0" width="24" height="24">
            <rect width="24" height="24" fill="currentColor"/>
        </mask>
        <g mask="url(#mask0_734_7351__delete)">
            <path d="M7 13H17V11H7V13ZM12 22C10.6167 22 9.31667 21.7375 8.1 21.2125C6.88333 20.6875 5.825 19.975 4.925 19.075C4.025 18.175 3.3125 17.1167 2.7875 15.9C2.2625 14.6833 2 13.3833 2 12C2 10.6167 2.2625 9.31667 2.7875 8.1C3.3125 6.88333 4.025 5.825 4.925 4.925C5.825 4.025 6.88333 3.3125 8.1 2.7875C9.31667 2.2625 10.6167 2 12 2C13.3833 2 14.6833 2.2625 15.9 2.7875C17.1167 3.3125 18.175 4.025 19.075 4.925C19.975 5.825 20.6875 6.88333 21.2125 8.1C21.7375 9.31667 22 10.6167 22 12C22 13.3833 21.7375 14.6833 21.2125 15.9C20.6875 17.1167 19.975 18.175 19.075 19.075C18.175 19.975 17.1167 20.6875 15.9 21.2125C14.6833 21.7375 13.3833 22 12 22Z" fill="currentColor"/>
        </g>
    </symbol>
    <symbol id="drag_handle" width="24" height="24" viewBox="0 0 24 24" fill="none" xmlns="http://www.w3.org/2000/svg">
        <mask id="mask0_734_7336__drag_handle" style="mask-type:alpha" maskUnits="userSpaceOnUse" x="0" y="0" width="24" height="24">
            <rect width="24" height="24" fill="currentColor"/>
        </mask>
        <g mask="url(#mask0_734_7336__drag_handle)">
            <path d="M4 15V13H20V15H4ZM4 11V9H20V11H4Z" fill="currentColor"/>
        </g>
    </symbol>
    <symbol id="drag_indicator" width="24" height="24" viewBox="0 0 24 24" fill="none" xmlns="http://www.w3.org/2000/svg">
        <mask id="mask0_734_7337__drag_indicator" style="mask-type:alpha" maskUnits="userSpaceOnUse" x="0" y="0" width="24" height="24">
            <rect width="24" height="24" fill="currentColor"/>
        </mask>
        <g mask="url(#mask0_734_7337__drag_indicator)">
            <path d="M9 20C8.45 20 7.97917 19.8042 7.5875 19.4125C7.19583 19.0208 7 18.55 7 18C7 17.45 7.19583 16.9792 7.5875 16.5875C7.97917 16.1958 8.45 16 9 16C9.55 16 10.0208 16.1958 10.4125 16.5875C10.8042 16.9792 11 17.45 11 18C11 18.55 10.8042 19.0208 10.4125 19.4125C10.0208 19.8042 9.55 20 9 20ZM15 20C14.45 20 13.9792 19.8042 13.5875 19.4125C13.1958 19.0208 13 18.55 13 18C13 17.45 13.1958 16.9792 13.5875 16.5875C13.9792 16.1958 14.45 16 15 16C15.55 16 16.0208 16.1958 16.4125 16.5875C16.8042 16.9792 17 17.45 17 18C17 18.55 16.8042 19.0208 16.4125 19.4125C16.0208 19.8042 15.55 20 15 20ZM9 14C8.45 14 7.97917 13.8042 7.5875 13.4125C7.19583 13.0208 7 12.55 7 12C7 11.45 7.19583 10.9792 7.5875 10.5875C7.97917 10.1958 8.45 10 9 10C9.55 10 10.0208 10.1958 10.4125 10.5875C10.8042 10.9792 11 11.45 11 12C11 12.55 10.8042 13.0208 10.4125 13.4125C10.0208 13.8042 9.55 14 9 14ZM15 14C14.45 14 13.9792 13.8042 13.5875 13.4125C13.1958 13.0208 13 12.55 13 12C13 11.45 13.1958 10.9792 13.5875 10.5875C13.9792 10.1958 14.45 10 15 10C15.55 10 16.0208 10.1958 16.4125 10.5875C16.8042 10.9792 17 11.45 17 12C17 12.55 16.8042 13.0208 16.4125 13.4125C16.0208 13.8042 15.55 14 15 14ZM9 8C8.45 8 7.97917 7.80417 7.5875 7.4125C7.19583 7.02083 7 6.55 7 6C7 5.45 7.19583 4.97917 7.5875 4.5875C7.97917 4.19583 8.45 4 9 4C9.55 4 10.0208 4.19583 10.4125 4.5875C10.8042 4.97917 11 5.45 11 6C11 6.55 10.8042 7.02083 10.4125 7.4125C10.0208 7.80417 9.55 8 9 8ZM15 8C14.45 8 13.9792 7.80417 13.5875 7.4125C13.1958 7.02083 13 6.55 13 6C13 5.45 13.1958 4.97917 13.5875 4.5875C13.9792 4.19583 14.45 4 15 4C15.55 4 16.0208 4.19583 16.4125 4.5875C16.8042 4.97917 17 5.45 17 6C17 6.55 16.8042 7.02083 16.4125 7.4125C16.0208 7.80417 15.55 8 15 8Z" fill="currentColor"/>
        </g>
    </symbol>
    <symbol id="dropdown_off" width="24" height="24" viewBox="0 0 24 24" fill="none" xmlns="http://www.w3.org/2000/svg">
        <mask id="mask0_734_7328__dropdown_off" style="mask-type:alpha" maskUnits="userSpaceOnUse" x="0" y="0" width="25" height="24">
            <rect x="0.0440674" width="24" height="24" fill="currentColor"/>
        </mask>
        <g mask="url(#mask0_734_7328__dropdown_off)">
            <path d="M12.0441 15L7.04407 10H17.0441L12.0441 15Z" fill="currentColor"/>
        </g>
    </symbol>
    <symbol id="dropdown_on" width="24" height="24" viewBox="0 0 24 24" fill="none" xmlns="http://www.w3.org/2000/svg">
        <mask id="mask0_734_7329__dropdown_on" style="mask-type:alpha" maskUnits="userSpaceOnUse" x="0" y="0" width="24" height="24">
            <rect width="24" height="24" fill="currentColor"/>
        </mask>
        <g mask="url(#mask0_734_7329__dropdown_on)">
            <path d="M7 14L12 9L17 14H7Z" fill="currentColor"/>
        </g>
    </symbol>
    <symbol id="favorite_off" width="24" height="24" viewBox="0 0 24 24" fill="none" xmlns="http://www.w3.org/2000/svg">
        <mask id="mask0_734_7346__favorite_off" style="mask-type:alpha" maskUnits="userSpaceOnUse" x="0" y="0" width="24" height="24">
            <rect width="24" height="24" fill="currentColor"/>
        </mask>
        <g mask="url(#mask0_734_7346__favorite_off)">
            <path d="M12 21L10.55 19.7C8.86667 18.1834 7.475 16.875 6.375 15.775C5.275 14.675 4.4 13.6875 3.75 12.8125C3.1 11.9375 2.64583 11.1334 2.3875 10.4C2.12917 9.66669 2 8.91669 2 8.15002C2 6.58336 2.525 5.27502 3.575 4.22502C4.625 3.17502 5.93333 2.65002 7.5 2.65002C8.36667 2.65002 9.19167 2.83336 9.975 3.20002C10.7583 3.56669 11.4333 4.08336 12 4.75002C12.5667 4.08336 13.2417 3.56669 14.025 3.20002C14.8083 2.83336 15.6333 2.65002 16.5 2.65002C18.0667 2.65002 19.375 3.17502 20.425 4.22502C21.475 5.27502 22 6.58336 22 8.15002C22 8.91669 21.8708 9.66669 21.6125 10.4C21.3542 11.1334 20.9 11.9375 20.25 12.8125C19.6 13.6875 18.725 14.675 17.625 15.775C16.525 16.875 15.1333 18.1834 13.45 19.7L12 21ZM12 18.3C13.6 16.8667 14.9167 15.6375 15.95 14.6125C16.9833 13.5875 17.8 12.6959 18.4 11.9375C19 11.1792 19.4167 10.5042 19.65 9.91252C19.8833 9.32086 20 8.73336 20 8.15002C20 7.15002 19.6667 6.31669 19 5.65002C18.3333 4.98336 17.5 4.65002 16.5 4.65002C15.7167 4.65002 14.9917 4.87086 14.325 5.31252C13.6583 5.75419 13.2 6.31669 12.95 7.00002H11.05C10.8 6.31669 10.3417 5.75419 9.675 5.31252C9.00833 4.87086 8.28333 4.65002 7.5 4.65002C6.5 4.65002 5.66667 4.98336 5 5.65002C4.33333 6.31669 4 7.15002 4 8.15002C4 8.73336 4.11667 9.32086 4.35 9.91252C4.58333 10.5042 5 11.1792 5.6 11.9375C6.2 12.6959 7.01667 13.5875 8.05 14.6125C9.08333 15.6375 10.4 16.8667 12 18.3Z" fill="currentColor"/>
        </g>
    </symbol>
    <symbol id="favorite_on" width="24" height="24" viewBox="0 0 24 24" fill="none" xmlns="http://www.w3.org/2000/svg">
        <mask id="mask0_734_7347__favorite_on" style="mask-type:alpha" maskUnits="userSpaceOnUse" x="0" y="0" width="24" height="24">
            <rect width="24" height="24" fill="currentColor"/>
        </mask>
        <g mask="url(#mask0_734_7347__favorite_on)">
            <path d="M12 21L10.55 19.7C8.86667 18.1834 7.475 16.875 6.375 15.775C5.275 14.675 4.4 13.6875 3.75 12.8125C3.1 11.9375 2.64583 11.1334 2.3875 10.4C2.12917 9.66669 2 8.91669 2 8.15002C2 6.58336 2.525 5.27502 3.575 4.22502C4.625 3.17502 5.93333 2.65002 7.5 2.65002C8.36667 2.65002 9.19167 2.83336 9.975 3.20002C10.7583 3.56669 11.4333 4.08336 12 4.75002C12.5667 4.08336 13.2417 3.56669 14.025 3.20002C14.8083 2.83336 15.6333 2.65002 16.5 2.65002C18.0667 2.65002 19.375 3.17502 20.425 4.22502C21.475 5.27502 22 6.58336 22 8.15002C22 8.91669 21.8708 9.66669 21.6125 10.4C21.3542 11.1334 20.9 11.9375 20.25 12.8125C19.6 13.6875 18.725 14.675 17.625 15.775C16.525 16.875 15.1333 18.1834 13.45 19.7L12 21Z" fill="currentColor"/>
        </g>
    </symbol>
    <symbol id="festival" width="24" height="24" viewBox="0 0 24 24" fill="none" xmlns="http://www.w3.org/2000/svg">
        <mask id="mask0_1571_6821__festival" style="mask-type:alpha" maskUnits="userSpaceOnUse" x="0" y="0" width="24" height="24">
            <rect width="24" height="24" fill="currentColor"/>
        </mask>
        <g mask="url(#mask0_1571_6821__festival)">
            <path d="M2.00006 22.0002C2.48339 20.7669 2.80423 19.4961 2.96256 18.1877C3.12089 16.8794 3.21673 15.5669 3.25006 14.2502C2.60006 14.0002 2.06256 13.5836 1.63756 13.0002C1.21256 12.4169 1.00006 11.7502 1.00006 11.0002V9.00024C2.91673 8.36691 4.8709 7.40024 6.86256 6.10024C8.85423 4.80024 10.5667 3.43358 12.0001 2.00024C13.4334 3.43358 15.1459 4.80024 17.1376 6.10024C19.1292 7.40024 21.0834 8.36691 23.0001 9.00024V11.0002C23.0001 11.7502 22.7876 12.4169 22.3626 13.0002C21.9376 13.5836 21.4001 14.0002 20.7501 14.2502C20.7834 15.5669 20.8792 16.8794 21.0376 18.1877C21.1959 19.4961 21.5167 20.7669 22.0001 22.0002H2.00006ZM5.90006 9.00024H18.1001C16.8001 8.26691 15.6292 7.51274 14.5876 6.73774C13.5459 5.96274 12.6834 5.28358 12.0001 4.70024C11.3167 5.28358 10.4542 5.96274 9.41256 6.73774C8.3709 7.51274 7.20006 8.26691 5.90006 9.00024ZM14.5001 12.5002C14.9167 12.5002 15.2709 12.3544 15.5626 12.0627C15.8542 11.7711 16.0001 11.4169 16.0001 11.0002H13.0001C13.0001 11.4169 13.1459 11.7711 13.4376 12.0627C13.7292 12.3544 14.0834 12.5002 14.5001 12.5002ZM9.50006 12.5002C9.91673 12.5002 10.2709 12.3544 10.5626 12.0627C10.8542 11.7711 11.0001 11.4169 11.0001 11.0002H8.00006C8.00006 11.4169 8.1459 11.7711 8.43756 12.0627C8.72923 12.3544 9.0834 12.5002 9.50006 12.5002ZM4.50006 12.5002C4.91673 12.5002 5.27089 12.3544 5.56256 12.0627C5.85423 11.7711 6.00006 11.4169 6.00006 11.0002H3.00006C3.00006 11.4169 3.14589 11.7711 3.43756 12.0627C3.72923 12.3544 4.08339 12.5002 4.50006 12.5002ZM4.65006 20.0002H7.32506C7.47506 19.0002 7.59173 18.0086 7.67506 17.0252C7.7584 16.0419 7.82506 15.0502 7.87506 14.0502C7.72506 13.9669 7.57506 13.8794 7.42506 13.7877C7.27506 13.6961 7.1334 13.5836 7.00006 13.4502C6.75006 13.7002 6.47923 13.9044 6.18756 14.0627C5.89589 14.2211 5.58339 14.3419 5.25006 14.4252C5.21673 15.3752 5.1584 16.3127 5.07506 17.2377C4.99173 18.1627 4.85006 19.0836 4.65006 20.0002ZM9.35006 20.0002H14.6501C14.5167 19.0836 14.4126 18.1669 14.3376 17.2502C14.2626 16.3336 14.2001 15.4086 14.1501 14.4752C13.7167 14.4419 13.3209 14.3377 12.9626 14.1627C12.6042 13.9877 12.2834 13.7586 12.0001 13.4752C11.7167 13.7586 11.3876 13.9877 11.0126 14.1627C10.6376 14.3377 10.2501 14.4419 9.85006 14.4752C9.80006 15.4086 9.73756 16.3336 9.66256 17.2502C9.58756 18.1669 9.4834 19.0836 9.35006 20.0002ZM16.6751 20.0002H19.3501C19.1501 19.0836 19.0084 18.1627 18.9251 17.2377C18.8417 16.3127 18.7834 15.3752 18.7501 14.4252C18.4167 14.3419 18.1001 14.2211 17.8001 14.0627C17.5001 13.9044 17.2334 13.7002 17.0001 13.4502C16.8667 13.5836 16.7251 13.6961 16.5751 13.7877C16.4251 13.8794 16.2751 13.9669 16.1251 14.0502C16.1751 15.0502 16.2459 16.0419 16.3376 17.0252C16.4292 18.0086 16.5417 19.0002 16.6751 20.0002ZM19.5001 12.5002C19.9167 12.5002 20.2709 12.3544 20.5626 12.0627C20.8542 11.7711 21.0001 11.4169 21.0001 11.0002H18.0001C18.0001 11.4169 18.1459 11.7711 18.4376 12.0627C18.7292 12.3544 19.0834 12.5002 19.5001 12.5002Z" fill="currentColor"/>
        </g>
    </symbol>
    <symbol id="food" width="24" height="24" viewBox="0 0 24 24" fill="none" xmlns="http://www.w3.org/2000/svg">
        <mask id="mask0_1571_6811__food" style="mask-type:alpha" maskUnits="userSpaceOnUse" x="0" y="0" width="24" height="24">
            <rect width="24" height="24" fill="currentColor"/>
        </mask>
        <g mask="url(#mask0_1571_6811__food)">
            <path d="M4.37498 21L2.97498 19.6L13.225 9.35C12.925 8.65 12.8833 7.85833 13.1 6.975C13.3166 6.09167 13.7916 5.3 14.525 4.6C15.4083 3.71667 16.3916 3.2 17.475 3.05C18.5583 2.9 19.4416 3.16667 20.125 3.85C20.8083 4.53333 21.075 5.41667 20.925 6.5C20.775 7.58333 20.2583 8.56667 19.375 9.45C18.675 10.1833 17.8833 10.6583 17 10.875C16.1166 11.0917 15.325 11.05 14.625 10.75L13.375 12L20.975 19.6L19.575 21L11.975 13.45L4.37498 21ZM7.32498 12.45L4.32498 9.45C3.42498 8.55 2.97498 7.475 2.97498 6.225C2.97498 4.975 3.42498 3.9 4.32498 3L10.525 9.25L7.32498 12.45Z" fill="currentColor"/>
        </g>
    </symbol>
    <symbol id="hotels" width="24" height="24" viewBox="0 0 24 24" fill="none" xmlns="http://www.w3.org/2000/svg">
        <mask id="mask0_1571_6826__hotels" style="mask-type:alpha" maskUnits="userSpaceOnUse" x="0" y="0" width="24" height="24">
            <rect width="24" height="24" fill="white"/>
        </mask>
        <g mask="url(#mask0_1571_6826__hotels)">
            <path d="M2.00006 19.0002V13.0002C2.00006 12.5502 2.09173 12.1419 2.27506 11.7752C2.45839 11.4086 2.70006 11.0836 3.00006 10.8002V8.00024C3.00006 7.16691 3.29173 6.45858 3.87506 5.87524C4.45839 5.29191 5.16673 5.00024 6.00006 5.00024H10.0001C10.3834 5.00024 10.7417 5.07108 11.0751 5.21274C11.4084 5.35441 11.7167 5.55024 12.0001 5.80024C12.2834 5.55024 12.5917 5.35441 12.9251 5.21274C13.2584 5.07108 13.6167 5.00024 14.0001 5.00024H18.0001C18.8334 5.00024 19.5417 5.29191 20.1251 5.87524C20.7084 6.45858 21.0001 7.16691 21.0001 8.00024V10.8002C21.3001 11.0836 21.5417 11.4086 21.7251 11.7752C21.9084 12.1419 22.0001 12.5502 22.0001 13.0002V19.0002H20.0001V17.0002H4.00006V19.0002H2.00006ZM13.0001 10.0002H19.0001V8.00024C19.0001 7.71691 18.9042 7.47941 18.7126 7.28774C18.5209 7.09608 18.2834 7.00024 18.0001 7.00024H14.0001C13.7167 7.00024 13.4792 7.09608 13.2876 7.28774C13.0959 7.47941 13.0001 7.71691 13.0001 8.00024V10.0002ZM5.00006 10.0002H11.0001V8.00024C11.0001 7.71691 10.9042 7.47941 10.7126 7.28774C10.5209 7.09608 10.2834 7.00024 10.0001 7.00024H6.00006C5.71673 7.00024 5.47923 7.09608 5.28756 7.28774C5.09589 7.47941 5.00006 7.71691 5.00006 8.00024V10.0002ZM4.00006 15.0002H20.0001V13.0002C20.0001 12.7169 19.9042 12.4794 19.7126 12.2877C19.5209 12.0961 19.2834 12.0002 19.0001 12.0002H5.00006C4.71673 12.0002 4.47923 12.0961 4.28756 12.2877C4.09589 12.4794 4.00006 12.7169 4.00006 13.0002V15.0002Z" fill="currentColor"/>
        </g>
    </symbol>
    <symbol id="image" width="24" height="24" viewBox="0 0 24 24" fill="none" xmlns="http://www.w3.org/2000/svg">
        <mask id="mask0_734_7350__image" style="mask-type:alpha" maskUnits="userSpaceOnUse" x="0" y="0" width="24" height="24">
            <rect width="24" height="24" fill="currentColor"/>
        </mask>
        <g mask="url(#mask0_734_7350__image)">
            <path d="M4 20C3.45 20 2.97917 19.8042 2.5875 19.4125C2.19583 19.0208 2 18.55 2 18V6C2 5.45 2.19583 4.97917 2.5875 4.5875C2.97917 4.19583 3.45 4 4 4H20C20.55 4 21.0208 4.19583 21.4125 4.5875C21.8042 4.97917 22 5.45 22 6V18C22 18.55 21.8042 19.0208 21.4125 19.4125C21.0208 19.8042 20.55 20 20 20H4ZM4 18H20V6H4V18ZM6 16H18L14.25 11L11.25 15L9 12L6 16Z" fill="currentColor"/>
        </g>
    </symbol>
    <symbol id="leports" width="24" height="24" viewBox="0 0 24 24" fill="none" xmlns="http://www.w3.org/2000/svg">
        <mask id="mask0_1571_6855__leports" style="mask-type:alpha" maskUnits="userSpaceOnUse" x="0" y="0" width="24" height="24">
            <rect width="24" height="24" fill="currentColor"/>
        </mask>
        <g mask="url(#mask0_1571_6855__leports)">
            <path d="M3.425 20L2 18.6L6.1 14.5C6.61667 13.9833 6.97083 13.3375 7.1625 12.5625C7.35417 11.7875 7.45 10.6 7.45 8.99997C7.45 8.0333 7.66667 7.0833 8.1 6.14997C8.53333 5.21664 9.15 4.34997 9.95 3.54997C11.4667 2.0333 13.1417 1.17497 14.975 0.97497C16.8083 0.77497 18.3167 1.2833 19.5 2.49997C20.7 3.69997 21.2 5.21664 21 7.04997C20.8 8.8833 19.95 10.55 18.45 12.05C17.65 12.85 16.7833 13.4666 15.85 13.9C14.9167 14.3333 13.9667 14.55 13 14.55C11.3833 14.55 10.2 14.6416 9.45 14.825C8.7 15.0083 8.05833 15.3666 7.525 15.9L3.425 20ZM10.3 11.65C11.0833 12.4166 12.1417 12.7 13.475 12.5C14.8083 12.3 16 11.675 17.05 10.625C18.1167 9.5583 18.7542 8.36247 18.9625 7.03747C19.1708 5.71247 18.8833 4.67497 18.1 3.92497C17.3 3.12497 16.2542 2.82497 14.9625 3.02497C13.6708 3.22497 12.4833 3.8583 11.4 4.92497C10.35 5.97497 9.7125 7.16247 9.4875 8.48747C9.2625 9.81247 9.53333 10.8666 10.3 11.65ZM18 23C16.9 23 15.9583 22.6083 15.175 21.825C14.3917 21.0416 14 20.1 14 19C14 17.9 14.3917 16.9583 15.175 16.175C15.9583 15.3916 16.9 15 18 15C19.1 15 20.0417 15.3916 20.825 16.175C21.6083 16.9583 22 17.9 22 19C22 20.1 21.6083 21.0416 20.825 21.825C20.0417 22.6083 19.1 23 18 23ZM18 21C18.55 21 19.0208 20.8041 19.4125 20.4125C19.8042 20.0208 20 19.55 20 19C20 18.45 19.8042 17.9791 19.4125 17.5875C19.0208 17.1958 18.55 17 18 17C17.45 17 16.9792 17.1958 16.5875 17.5875C16.1958 17.9791 16 18.45 16 19C16 19.55 16.1958 20.0208 16.5875 20.4125C16.9792 20.8041 17.45 21 18 21Z" fill="currentColor"/>
        </g>
    </symbol>
    <symbol id="location" width="24" height="24" viewBox="0 0 24 24" fill="none" xmlns="http://www.w3.org/2000/svg">
        <mask id="mask0_734_7344__location" style="mask-type:alpha" maskUnits="userSpaceOnUse" x="0" y="0" width="24" height="24">
            <rect width="24" height="24" fill="currentColor"/>
        </mask>
        <g mask="url(#mask0_734_7344__location)">
            <path d="M12 16.475C13.65 15.1417 14.8958 13.8583 15.7375 12.625C16.5792 11.3917 17 10.2333 17 9.15C17 7.65 16.5333 6.41667 15.6 5.45C14.6667 4.48333 13.4667 4 12 4C10.5333 4 9.33333 4.48333 8.4 5.45C7.46667 6.41667 7 7.65 7 9.15C7 10.2333 7.42083 11.3917 8.2625 12.625C9.10417 13.8583 10.35 15.1417 12 16.475ZM12 19C9.65 17.2667 7.89583 15.5833 6.7375 13.95C5.57917 12.3167 5 10.7167 5 9.15C5 7.06667 5.65 5.35417 6.95 4.0125C8.25 2.67083 9.93333 2 12 2C14.0667 2 15.75 2.67083 17.05 4.0125C18.35 5.35417 19 7.06667 19 9.15C19 10.7167 18.4208 12.3167 17.2625 13.95C16.1042 15.5833 14.35 17.2667 12 19ZM12 11C12.55 11 13.0208 10.8042 13.4125 10.4125C13.8042 10.0208 14 9.55 14 9C14 8.45 13.8042 7.97917 13.4125 7.5875C13.0208 7.19583 12.55 7 12 7C11.45 7 10.9792 7.19583 10.5875 7.5875C10.1958 7.97917 10 8.45 10 9C10 9.55 10.1958 10.0208 10.5875 10.4125C10.9792 10.8042 11.45 11 12 11ZM5 22V20H19V22H5Z" fill="currentColor"/>
        </g>
    </symbol>
    <symbol id="map" width="24" height="24" viewBox="0 0 24 24" fill="none" xmlns="http://www.w3.org/2000/svg">
        <mask id="mask0_734_7340__map" style="mask-type:alpha" maskUnits="userSpaceOnUse" x="0" y="0" width="24" height="24">
            <rect width="24" height="24" fill="currentColor"/>
        </mask>
        <g mask="url(#mask0_734_7340__map)">
            <path d="M15 21L9 18.9L4.35 20.7C4.01667 20.8333 3.70833 20.7958 3.425 20.5875C3.14167 20.3792 3 20.1 3 19.75V5.75C3 5.53333 3.0625 5.34167 3.1875 5.175C3.3125 5.00833 3.48333 4.88333 3.7 4.8L9 3L15 5.1L19.65 3.3C19.9833 3.16667 20.2917 3.20417 20.575 3.4125C20.8583 3.62083 21 3.9 21 4.25V18.25C21 18.4667 20.9375 18.6583 20.8125 18.825C20.6875 18.9917 20.5167 19.1167 20.3 19.2L15 21ZM14 18.55V6.85L10 5.45V17.15L14 18.55ZM16 18.55L19 17.55V5.7L16 6.85V18.55ZM5 18.3L8 17.15V5.45L5 6.45V18.3Z" fill="currentColor"/>
        </g>
    </symbol>
    <symbol id="map_search" width="24" height="24" viewBox="0 0 24 24" fill="none" xmlns="http://www.w3.org/2000/svg">
        <mask id="mask0_734_7341__map_search" style="mask-type:alpha" maskUnits="userSpaceOnUse" x="0" y="0" width="24" height="24">
            <rect width="24" height="24" fill="currentColor"/>
        </mask>
        <g mask="url(#mask0_734_7341__map_search)">
            <path d="M4.35 20.7C4.01667 20.8333 3.70833 20.7958 3.425 20.5875C3.14167 20.3792 3 20.1 3 19.75V5.75C3 5.53333 3.0625 5.34167 3.1875 5.175C3.3125 5.00833 3.48333 4.88333 3.7 4.8L9 3L15 5.1L19.65 3.3C19.9833 3.16667 20.2917 3.20417 20.575 3.4125C20.8583 3.62083 21 3.9 21 4.25V12.675C20.75 12.2917 20.4542 11.9417 20.1125 11.625C19.7708 11.3083 19.4 11.0333 19 10.8V5.7L16 6.85V10C15.65 10 15.3083 10.0292 14.975 10.0875C14.6417 10.1458 14.3167 10.2333 14 10.35V6.85L10 5.45V18.525L4.35 20.7ZM5 18.3L8 17.15V5.45L5 6.45V18.3ZM16 18C16.5667 18 17.0375 17.8333 17.4125 17.5C17.7875 17.1667 17.9833 16.6667 18 16C18.0167 15.4333 17.8292 14.9583 17.4375 14.575C17.0458 14.1917 16.5667 14 16 14C15.4333 14 14.9583 14.1917 14.575 14.575C14.1917 14.9583 14 15.4333 14 16C14 16.5667 14.1917 17.0417 14.575 17.425C14.9583 17.8083 15.4333 18 16 18ZM16 20C14.9 20 13.9583 19.6083 13.175 18.825C12.3917 18.0417 12 17.1 12 16C12 14.9 12.3917 13.9583 13.175 13.175C13.9583 12.3917 14.9 12 16 12C17.1 12 18.0417 12.3917 18.825 13.175C19.6083 13.9583 20 14.9 20 16C20 16.3833 19.9542 16.7458 19.8625 17.0875C19.7708 17.4292 19.6333 17.75 19.45 18.05L22 20.6L20.6 22L18.05 19.45C17.75 19.6333 17.4292 19.7708 17.0875 19.8625C16.7458 19.9542 16.3833 20 16 20Z" fill="currentColor"/>
        </g>
    </symbol>
    <symbol id="more" width="24" height="24" viewBox="0 0 24 24" fill="none" xmlns="http://www.w3.org/2000/svg">
        <mask id="mask0_734_7314__more" style="mask-type:alpha" maskUnits="userSpaceOnUse" x="0" y="0" width="25" height="25">
            <rect x="0.446045" y="0.252686" width="24" height="24" fill="currentColor"/>
        </mask>
        <g mask="url(#mask0_734_7314__more)">
            <path d="M6.44604 14.2527C5.89604 14.2527 5.42521 14.0569 5.03354 13.6652C4.64188 13.2735 4.44604 12.8027 4.44604 12.2527C4.44604 11.7027 4.64188 11.2319 5.03354 10.8402C5.42521 10.4485 5.89604 10.2527 6.44604 10.2527C6.99604 10.2527 7.46688 10.4485 7.85855 10.8402C8.25021 11.2319 8.44604 11.7027 8.44604 12.2527C8.44604 12.8027 8.25021 13.2735 7.85855 13.6652C7.46688 14.0569 6.99604 14.2527 6.44604 14.2527ZM12.446 14.2527C11.896 14.2527 11.4252 14.0569 11.0335 13.6652C10.6419 13.2735 10.446 12.8027 10.446 12.2527C10.446 11.7027 10.6419 11.2319 11.0335 10.8402C11.4252 10.4485 11.896 10.2527 12.446 10.2527C12.996 10.2527 13.4669 10.4485 13.8585 10.8402C14.2502 11.2319 14.446 11.7027 14.446 12.2527C14.446 12.8027 14.2502 13.2735 13.8585 13.6652C13.4669 14.0569 12.996 14.2527 12.446 14.2527ZM18.446 14.2527C17.896 14.2527 17.4252 14.0569 17.0335 13.6652C16.6419 13.2735 16.446 12.8027 16.446 12.2527C16.446 11.7027 16.6419 11.2319 17.0335 10.8402C17.4252 10.4485 17.896 10.2527 18.446 10.2527C18.996 10.2527 19.4669 10.4485 19.8585 10.8402C20.2502 11.2319 20.446 11.7027 20.446 12.2527C20.446 12.8027 20.2502 13.2735 19.8585 13.6652C19.4669 14.0569 18.996 14.2527 18.446 14.2527Z" fill="currentColor"/>
        </g>
    </symbol>
    <symbol id="page_first" width="24" height="24" viewBox="0 0 24 24" fill="none" xmlns="http://www.w3.org/2000/svg">
        <mask id="mask0_734_7326__page_first" style="mask-type:alpha" maskUnits="userSpaceOnUse" x="0" y="0" width="24" height="24">
            <rect width="24" height="24" fill="currentColor"/>
        </mask>
        <g mask="url(#mask0_734_7326__page_first)">
            <path d="M6 18V6H8V18H6ZM17 18L11 12L17 6L18.4 7.4L13.8 12L18.4 16.6L17 18Z" fill="currentColor"/>
        </g>
    </symbol>
    <symbol id="page_last" width="24" height="24" viewBox="0 0 24 24" fill="none" xmlns="http://www.w3.org/2000/svg">
        <mask id="mask0_734_7327__page_last" style="mask-type:alpha" maskUnits="userSpaceOnUse" x="0" y="0" width="24" height="24">
            <rect width="24" height="24" fill="currentColor"/>
        </mask>
        <g mask="url(#mask0_734_7327__page_last)">
            <path d="M6.99998 18L5.59998 16.6L10.2 12L5.59998 7.4L6.99998 6L13 12L6.99998 18ZM16 18V6H18V18H16Z" fill="currentColor"/>
        </g>
    </symbol>
    <symbol id="polzzak" width="24" height="24" viewBox="0 0 24 24" fill="none" xmlns="http://www.w3.org/2000/svg">
        <mask id="mask0_1571_6841__polzzak" style="mask-type:alpha" maskUnits="userSpaceOnUse" x="0" y="0" width="24" height="24">
            <rect width="24" height="24" fill="currentColor"/>
        </mask>
        <g mask="url(#mask0_1571_6841__polzzak)">
            <path d="M9.50006 22.0001C8.25006 22.0001 7.18756 21.5626 6.31256 20.6876C5.43756 19.8126 5.00006 18.7501 5.00006 17.5001C5.00006 16.9167 5.14173 16.3792 5.42506 15.8876C5.70839 15.3959 6.23339 14.7667 7.00006 14.0001C7.10006 13.9001 7.19589 13.7959 7.28756 13.6876C7.37923 13.5792 7.50006 13.4334 7.65006 13.2501C6.80006 11.9501 6.14589 10.5876 5.68756 9.16256C5.22923 7.73756 5.00006 6.35006 5.00006 5.00006C5.00006 4.03339 5.17506 3.29173 5.52506 2.77506C5.87506 2.25839 6.36673 2.00006 7.00006 2.00006C7.95006 2.00006 8.80006 2.45839 9.55006 3.37506C10.3001 4.29173 10.8667 5.13339 11.2501 5.90006C11.4001 6.23339 11.5376 6.57089 11.6626 6.91256C11.7876 7.25423 11.9001 7.60839 12.0001 7.97506C12.1001 7.60839 12.2126 7.25423 12.3376 6.91256C12.4626 6.57089 12.6084 6.23339 12.7751 5.90006C13.1417 5.13339 13.7001 4.29173 14.4501 3.37506C15.2001 2.45839 16.0501 2.00006 17.0001 2.00006C17.6334 2.00006 18.1251 2.25839 18.4751 2.77506C18.8251 3.29173 19.0001 4.03339 19.0001 5.00006C19.0001 6.35006 18.7709 7.73756 18.3126 9.16256C17.8542 10.5876 17.2001 11.9501 16.3501 13.2501C16.5001 13.4334 16.6209 13.5792 16.7126 13.6876C16.8042 13.7959 16.9001 13.9001 17.0001 14.0001C17.7667 14.7667 18.2917 15.3959 18.5751 15.8876C18.8584 16.3792 19.0001 16.9167 19.0001 17.5001C19.0001 18.7501 18.5626 19.8126 17.6876 20.6876C16.8126 21.5626 15.7501 22.0001 14.5001 22.0001C13.7501 22.0001 13.1459 21.9167 12.6876 21.7501L12.0001 21.5001L11.3126 21.7501C10.8542 21.9167 10.2501 22.0001 9.50006 22.0001ZM9.50006 20.0001C9.88339 20.0001 10.2667 19.9542 10.6501 19.8626C11.0334 19.7709 11.3917 19.6334 11.7251 19.4501C11.5417 19.3667 11.3751 19.2251 11.2251 19.0251C11.0751 18.8251 11.0001 18.6501 11.0001 18.5001C11.0001 18.3667 11.0959 18.2501 11.2876 18.1501C11.4792 18.0501 11.7167 18.0001 12.0001 18.0001C12.2834 18.0001 12.5209 18.0501 12.7126 18.1501C12.9042 18.2501 13.0001 18.3667 13.0001 18.5001C13.0001 18.6501 12.9251 18.8251 12.7751 19.0251C12.6251 19.2251 12.4584 19.3667 12.2751 19.4501C12.6084 19.6334 12.9667 19.7709 13.3501 19.8626C13.7334 19.9542 14.1167 20.0001 14.5001 20.0001C15.2001 20.0001 15.7917 19.7584 16.2751 19.2751C16.7584 18.7917 17.0001 18.2001 17.0001 17.5001C17.0001 17.2001 16.9167 16.9084 16.7501 16.6251C16.5834 16.3417 16.3334 16.0584 16.0001 15.7751C15.7667 15.5751 15.5751 15.4001 15.4251 15.2501C15.2751 15.1001 15.0334 14.8167 14.7001 14.4001C14.2167 13.8167 13.8167 13.4376 13.5001 13.2626C13.1834 13.0876 12.6834 13.0001 12.0001 13.0001C11.3167 13.0001 10.8126 13.0876 10.4876 13.2626C10.1626 13.4376 9.76673 13.8167 9.30006 14.4001C8.96673 14.8167 8.72506 15.1001 8.57506 15.2501C8.42506 15.4001 8.23339 15.5751 8.00006 15.7751C7.66673 16.0584 7.41673 16.3417 7.25006 16.6251C7.08339 16.9084 7.00006 17.2001 7.00006 17.5001C7.00006 18.2001 7.24173 18.7917 7.72506 19.2751C8.20839 19.7584 8.80006 20.0001 9.50006 20.0001ZM10.5001 16.7501C10.3667 16.7501 10.2501 16.6751 10.1501 16.5251C10.0501 16.3751 10.0001 16.2001 10.0001 16.0001C10.0001 15.8001 10.0501 15.6251 10.1501 15.4751C10.2501 15.3251 10.3667 15.2501 10.5001 15.2501C10.6334 15.2501 10.7501 15.3251 10.8501 15.4751C10.9501 15.6251 11.0001 15.8001 11.0001 16.0001C11.0001 16.2001 10.9501 16.3751 10.8501 16.5251C10.7501 16.6751 10.6334 16.7501 10.5001 16.7501ZM13.5001 16.7501C13.3667 16.7501 13.2501 16.6751 13.1501 16.5251C13.0501 16.3751 13.0001 16.2001 13.0001 16.0001C13.0001 15.8001 13.0501 15.6251 13.1501 15.4751C13.2501 15.3251 13.3667 15.2501 13.5001 15.2501C13.6334 15.2501 13.7501 15.3251 13.8501 15.4751C13.9501 15.6251 14.0001 15.8001 14.0001 16.0001C14.0001 16.2001 13.9501 16.3751 13.8501 16.5251C13.7501 16.6751 13.6334 16.7501 13.5001 16.7501ZM9.07506 11.7751C9.2584 11.6417 9.46673 11.5251 9.70006 11.4251C9.9334 11.3251 10.1917 11.2334 10.4751 11.1501C10.4417 10.3501 10.3209 9.55423 10.1126 8.76256C9.90423 7.97089 9.64173 7.25006 9.32506 6.60006C9.0084 5.93339 8.65839 5.37089 8.27506 4.91256C7.89173 4.45423 7.50839 4.15839 7.12506 4.02506C7.09173 4.12506 7.06256 4.25423 7.03756 4.41256C7.01256 4.57089 7.00006 4.76673 7.00006 5.00006C7.00006 6.13339 7.17923 7.28339 7.53756 8.45006C7.89589 9.61673 8.4084 10.7251 9.07506 11.7751ZM14.9251 11.7751C15.5917 10.7251 16.1042 9.61673 16.4626 8.45006C16.8209 7.28339 17.0001 6.13339 17.0001 5.00006C17.0001 4.76673 16.9876 4.57089 16.9626 4.41256C16.9376 4.25423 16.9084 4.12506 16.8751 4.02506C16.4917 4.15839 16.1084 4.45423 15.7251 4.91256C15.3417 5.37089 14.9917 5.93339 14.6751 6.60006C14.3751 7.25006 14.1209 7.97089 13.9126 8.76256C13.7042 9.55423 13.5751 10.3501 13.5251 11.1501C13.7751 11.2167 14.0167 11.3042 14.2501 11.4126C14.4834 11.5209 14.7084 11.6417 14.9251 11.7751Z" fill="currentColor"/>
        </g>
    </symbol>
    <symbol id="radio_off" width="24" height="24" viewBox="0 0 24 24" fill="none" xmlns="http://www.w3.org/2000/svg">
        <mask id="mask0_734_7334__radio_off" style="mask-type:alpha" maskUnits="userSpaceOnUse" x="0" y="0" width="24" height="24">
            <rect width="24" height="24" fill="currentColor"/>
        </mask>
        <g mask="url(#mask0_734_7334__radio_off)">
            <path d="M12 22C10.6167 22 9.31667 21.7375 8.1 21.2125C6.88333 20.6875 5.825 19.975 4.925 19.075C4.025 18.175 3.3125 17.1167 2.7875 15.9C2.2625 14.6833 2 13.3833 2 12C2 10.6167 2.2625 9.31667 2.7875 8.1C3.3125 6.88333 4.025 5.825 4.925 4.925C5.825 4.025 6.88333 3.3125 8.1 2.7875C9.31667 2.2625 10.6167 2 12 2C13.3833 2 14.6833 2.2625 15.9 2.7875C17.1167 3.3125 18.175 4.025 19.075 4.925C19.975 5.825 20.6875 6.88333 21.2125 8.1C21.7375 9.31667 22 10.6167 22 12C22 13.3833 21.7375 14.6833 21.2125 15.9C20.6875 17.1167 19.975 18.175 19.075 19.075C18.175 19.975 17.1167 20.6875 15.9 21.2125C14.6833 21.7375 13.3833 22 12 22ZM12 20C14.2333 20 16.125 19.225 17.675 17.675C19.225 16.125 20 14.2333 20 12C20 9.76667 19.225 7.875 17.675 6.325C16.125 4.775 14.2333 4 12 4C9.76667 4 7.875 4.775 6.325 6.325C4.775 7.875 4 9.76667 4 12C4 14.2333 4.775 16.125 6.325 17.675C7.875 19.225 9.76667 20 12 20Z" fill="currentColor"/>
        </g>
    </symbol>
    <symbol id="radio_on" width="24" height="24" viewBox="0 0 24 24" fill="none" xmlns="http://www.w3.org/2000/svg">
        <mask id="mask0_734_7335__radio_on" style="mask-type:alpha" maskUnits="userSpaceOnUse" x="0" y="0" width="24" height="24">
            <rect width="24" height="24" fill="currentColor"/>
        </mask>
        <g mask="url(#mask0_734_7335__radio_on)">
            <path d="M12 17C13.3833 17 14.5625 16.5125 15.5375 15.5375C16.5125 14.5625 17 13.3833 17 12C17 10.6167 16.5125 9.4375 15.5375 8.4625C14.5625 7.4875 13.3833 7 12 7C10.6167 7 9.4375 7.4875 8.4625 8.4625C7.4875 9.4375 7 10.6167 7 12C7 13.3833 7.4875 14.5625 8.4625 15.5375C9.4375 16.5125 10.6167 17 12 17ZM12 22C10.6167 22 9.31667 21.7375 8.1 21.2125C6.88333 20.6875 5.825 19.975 4.925 19.075C4.025 18.175 3.3125 17.1167 2.7875 15.9C2.2625 14.6833 2 13.3833 2 12C2 10.6167 2.2625 9.31667 2.7875 8.1C3.3125 6.88333 4.025 5.825 4.925 4.925C5.825 4.025 6.88333 3.3125 8.1 2.7875C9.31667 2.2625 10.6167 2 12 2C13.3833 2 14.6833 2.2625 15.9 2.7875C17.1167 3.3125 18.175 4.025 19.075 4.925C19.975 5.825 20.6875 6.88333 21.2125 8.1C21.7375 9.31667 22 10.6167 22 12C22 13.3833 21.7375 14.6833 21.2125 15.9C20.6875 17.1167 19.975 18.175 19.075 19.075C18.175 19.975 17.1167 20.6875 15.9 21.2125C14.6833 21.7375 13.3833 22 12 22ZM12 20C14.2333 20 16.125 19.225 17.675 17.675C19.225 16.125 20 14.2333 20 12C20 9.76667 19.225 7.875 17.675 6.325C16.125 4.775 14.2333 4 12 4C9.76667 4 7.875 4.775 6.325 6.325C4.775 7.875 4 9.76667 4 12C4 14.2333 4.775 16.125 6.325 17.675C7.875 19.225 9.76667 20 12 20Z" fill="currentColor"/>
        </g>
    </symbol>
    <symbol id="replay" width="24" height="24" viewBox="0 0 24 24" fill="none" xmlns="http://www.w3.org/2000/svg">
        <mask id="mask0_734_7321__replay" style="mask-type:alpha" maskUnits="userSpaceOnUse" x="0" y="0" width="24" height="24">
            <rect width="24" height="24" fill="currentColor"/>
        </mask>
        <g mask="url(#mask0_734_7321__replay)">
            <path d="M12 22C10.75 22 9.57917 21.7625 8.4875 21.2875C7.39583 20.8125 6.44583 20.1708 5.6375 19.3625C4.82917 18.5542 4.1875 17.6042 3.7125 16.5125C3.2375 15.4208 3 14.25 3 13H5C5 14.95 5.67917 16.6042 7.0375 17.9625C8.39583 19.3208 10.05 20 12 20C13.95 20 15.6042 19.3208 16.9625 17.9625C18.3208 16.6042 19 14.95 19 13C19 11.05 18.3208 9.39583 16.9625 8.0375C15.6042 6.67917 13.95 6 12 6H11.85L13.4 7.55L12 9L8 5L12 1L13.4 2.45L11.85 4H12C13.25 4 14.4208 4.2375 15.5125 4.7125C16.6042 5.1875 17.5542 5.82917 18.3625 6.6375C19.1708 7.44583 19.8125 8.39583 20.2875 9.4875C20.7625 10.5792 21 11.75 21 13C21 14.25 20.7625 15.4208 20.2875 16.5125C19.8125 17.6042 19.1708 18.5542 18.3625 19.3625C17.5542 20.1708 16.6042 20.8125 15.5125 21.2875C14.4208 21.7625 13.25 22 12 22Z" fill="currentColor"/>
        </g>
    </symbol>
    <symbol id="review" width="24" height="24" viewBox="0 0 24 24" fill="none" xmlns="http://www.w3.org/2000/svg">
        <mask id="mask0_734_7348__review" style="mask-type:alpha" maskUnits="userSpaceOnUse" x="0" y="0" width="24" height="24">
            <rect width="24" height="24" fill="currentColor"/>
        </mask>
        <g mask="url(#mask0_734_7348__review)">
            <path d="M12 22L9.325 18H4C3.45 18 2.97917 17.8042 2.5875 17.4125C2.19583 17.0208 2 16.55 2 16V4C2 3.45 2.19583 2.97917 2.5875 2.5875C2.97917 2.19583 3.45 2 4 2H20C20.55 2 21.0208 2.19583 21.4125 2.5875C21.8042 2.97917 22 3.45 22 4V16C22 16.55 21.8042 17.0208 21.4125 17.4125C21.0208 17.8042 20.55 18 20 18H14.675L12 22ZM12 18.4L13.6 16H20V4H4V16H10.4L12 18.4Z" fill="currentColor"/>
        </g>
    </symbol>
    <symbol id="search" width="24" height="24" viewBox="0 0 24 24" fill="none" xmlns="http://www.w3.org/2000/svg">
        <mask id="mask0_734_7320__search" style="mask-type:alpha" maskUnits="userSpaceOnUse" x="0" y="0" width="24" height="24">
            <rect width="24" height="24" fill="currentColor"/>
        </mask>
        <g mask="url(#mask0_734_7320__search)">
            <path d="M19.6 21L13.3 14.7C12.8 15.1 12.225 15.4167 11.575 15.65C10.925 15.8833 10.2333 16 9.5 16C7.68333 16 6.14583 15.3708 4.8875 14.1125C3.62917 12.8542 3 11.3167 3 9.5C3 7.68333 3.62917 6.14583 4.8875 4.8875C6.14583 3.62917 7.68333 3 9.5 3C11.3167 3 12.8542 3.62917 14.1125 4.8875C15.3708 6.14583 16 7.68333 16 9.5C16 10.2333 15.8833 10.925 15.65 11.575C15.4167 12.225 15.1 12.8 14.7 13.3L21 19.6L19.6 21ZM9.5 14C10.75 14 11.8125 13.5625 12.6875 12.6875C13.5625 11.8125 14 10.75 14 9.5C14 8.25 13.5625 7.1875 12.6875 6.3125C11.8125 5.4375 10.75 5 9.5 5C8.25 5 7.1875 5.4375 6.3125 6.3125C5.4375 7.1875 5 8.25 5 9.5C5 10.75 5.4375 11.8125 6.3125 12.6875C7.1875 13.5625 8.25 14 9.5 14Z" fill="currentColor"/>
        </g>
    </symbol>
    <symbol id="share" width="24" height="24" viewBox="0 0 24 24" fill="none" xmlns="http://www.w3.org/2000/svg">
        <mask id="mask0_734_7345__share" style="mask-type:alpha" maskUnits="userSpaceOnUse" x="-1" y="-1" width="25" height="25">
            <rect x="-0.00408936" y="-0.0667114" width="24" height="24" fill="currentColor"/>
        </mask>
        <g mask="url(#mask0_734_7345__share)">
            <path d="M16.9959 21.9333C16.1626 21.9333 15.4542 21.6416 14.8709 21.0583C14.2876 20.475 13.9959 19.7666 13.9959 18.9333C13.9959 18.8333 14.0209 18.6 14.0709 18.2333L7.04591 14.1333C6.77924 14.3833 6.47091 14.5791 6.12091 14.7208C5.77091 14.8625 5.39591 14.9333 4.99591 14.9333C4.16258 14.9333 3.45424 14.6416 2.87091 14.0583C2.28758 13.475 1.99591 12.7666 1.99591 11.9333C1.99591 11.1 2.28758 10.3916 2.87091 9.80829C3.45424 9.22496 4.16258 8.93329 4.99591 8.93329C5.39591 8.93329 5.77091 9.00412 6.12091 9.14579C6.47091 9.28746 6.77924 9.48329 7.04591 9.73329L14.0709 5.63329C14.0376 5.51662 14.0167 5.40412 14.0084 5.29579C14.0001 5.18746 13.9959 5.06662 13.9959 4.93329C13.9959 4.09996 14.2876 3.39162 14.8709 2.80829C15.4542 2.22496 16.1626 1.93329 16.9959 1.93329C17.8292 1.93329 18.5376 2.22496 19.1209 2.80829C19.7042 3.39162 19.9959 4.09996 19.9959 4.93329C19.9959 5.76662 19.7042 6.47496 19.1209 7.05829C18.5376 7.64162 17.8292 7.93329 16.9959 7.93329C16.5959 7.93329 16.2209 7.86246 15.8709 7.72079C15.5209 7.57912 15.2126 7.38329 14.9459 7.13329L7.92091 11.2333C7.95424 11.35 7.97508 11.4625 7.98341 11.5708C7.99174 11.6791 7.99591 11.8 7.99591 11.9333C7.99591 12.0666 7.99174 12.1875 7.98341 12.2958C7.97508 12.4041 7.95424 12.5166 7.92091 12.6333L14.9459 16.7333C15.2126 16.4833 15.5209 16.2875 15.8709 16.1458C16.2209 16.0041 16.5959 15.9333 16.9959 15.9333C17.8292 15.9333 18.5376 16.225 19.1209 16.8083C19.7042 17.3916 19.9959 18.1 19.9959 18.9333C19.9959 19.7666 19.7042 20.475 19.1209 21.0583C18.5376 21.6416 17.8292 21.9333 16.9959 21.9333ZM16.9959 19.9333C17.2792 19.9333 17.5167 19.8375 17.7084 19.6458C17.9001 19.4541 17.9959 19.2166 17.9959 18.9333C17.9959 18.65 17.9001 18.4125 17.7084 18.2208C17.5167 18.0291 17.2792 17.9333 16.9959 17.9333C16.7126 17.9333 16.4751 18.0291 16.2834 18.2208C16.0917 18.4125 15.9959 18.65 15.9959 18.9333C15.9959 19.2166 16.0917 19.4541 16.2834 19.6458C16.4751 19.8375 16.7126 19.9333 16.9959 19.9333ZM4.99591 12.9333C5.27924 12.9333 5.51674 12.8375 5.70841 12.6458C5.90008 12.4541 5.99591 12.2166 5.99591 11.9333C5.99591 11.65 5.90008 11.4125 5.70841 11.2208C5.51674 11.0291 5.27924 10.9333 4.99591 10.9333C4.71258 10.9333 4.47508 11.0291 4.28341 11.2208C4.09174 11.4125 3.99591 11.65 3.99591 11.9333C3.99591 12.2166 4.09174 12.4541 4.28341 12.6458C4.47508 12.8375 4.71258 12.9333 4.99591 12.9333ZM16.9959 5.93329C17.2792 5.93329 17.5167 5.83746 17.7084 5.64579C17.9001 5.45412 17.9959 5.21662 17.9959 4.93329C17.9959 4.64996 17.9001 4.41246 17.7084 4.22079C17.5167 4.02912 17.2792 3.93329 16.9959 3.93329C16.7126 3.93329 16.4751 4.02912 16.2834 4.22079C16.0917 4.41246 15.9959 4.64996 15.9959 4.93329C15.9959 5.21662 16.0917 5.45412 16.2834 5.64579C16.4751 5.83746 16.7126 5.93329 16.9959 5.93329Z" fill="currentColor"/>
        </g>
    </symbol>
    <symbol id="shopping" width="24" height="24" viewBox="0 0 24 24" fill="none" xmlns="http://www.w3.org/2000/svg">
        <mask id="mask0_1571_6816__shopping" style="mask-type:alpha" maskUnits="userSpaceOnUse" x="0" y="0" width="24" height="24">
            <rect width="24" height="24" fill="white"/>
        </mask>
        <g mask="url(#mask0_1571_6816__shopping)">
            <path d="M6.99994 22.0002C6.44994 22.0002 5.97911 21.8044 5.58744 21.4127C5.19577 21.0211 4.99994 20.5502 4.99994 20.0002C4.99994 19.4502 5.19577 18.9794 5.58744 18.5877C5.97911 18.1961 6.44994 18.0002 6.99994 18.0002C7.54994 18.0002 8.02077 18.1961 8.41244 18.5877C8.80411 18.9794 8.99994 19.4502 8.99994 20.0002C8.99994 20.5502 8.80411 21.0211 8.41244 21.4127C8.02077 21.8044 7.54994 22.0002 6.99994 22.0002ZM16.9999 22.0002C16.4499 22.0002 15.9791 21.8044 15.5874 21.4127C15.1958 21.0211 14.9999 20.5502 14.9999 20.0002C14.9999 19.4502 15.1958 18.9794 15.5874 18.5877C15.9791 18.1961 16.4499 18.0002 16.9999 18.0002C17.5499 18.0002 18.0208 18.1961 18.4124 18.5877C18.8041 18.9794 18.9999 19.4502 18.9999 20.0002C18.9999 20.5502 18.8041 21.0211 18.4124 21.4127C18.0208 21.8044 17.5499 22.0002 16.9999 22.0002ZM6.14994 6.00024L8.54994 11.0002H15.5499L18.2999 6.00024H6.14994ZM5.19994 4.00024H19.9499C20.3333 4.00024 20.6249 4.17108 20.8249 4.51274C21.0249 4.85441 21.0333 5.20024 20.8499 5.55024L17.2999 11.9502C17.1166 12.2836 16.8708 12.5419 16.5624 12.7252C16.2541 12.9086 15.9166 13.0002 15.5499 13.0002H8.09994L6.99994 15.0002H18.9999V17.0002H6.99994C6.24994 17.0002 5.68327 16.6711 5.29994 16.0127C4.91661 15.3544 4.89994 14.7002 5.24994 14.0502L6.59994 11.6002L2.99994 4.00024H0.999939V2.00024H4.24994L5.19994 4.00024Z" fill="currentColor"/>
        </g>
    </symbol>
    <symbol id="time" width="24" height="24" viewBox="0 0 24 24" fill="none" xmlns="http://www.w3.org/2000/svg">
        <mask id="mask0_734_7343__time" style="mask-type:alpha" maskUnits="userSpaceOnUse" x="0" y="0" width="24" height="24">
            <rect width="24" height="24" fill="currentColor"/>
        </mask>
        <g mask="url(#mask0_734_7343__time)">
            <path d="M15.3 16.7L16.7 15.3L13 11.6V7H11V12.4L15.3 16.7ZM12 22C10.6167 22 9.31667 21.7375 8.1 21.2125C6.88333 20.6875 5.825 19.975 4.925 19.075C4.025 18.175 3.3125 17.1167 2.7875 15.9C2.2625 14.6833 2 13.3833 2 12C2 10.6167 2.2625 9.31667 2.7875 8.1C3.3125 6.88333 4.025 5.825 4.925 4.925C5.825 4.025 6.88333 3.3125 8.1 2.7875C9.31667 2.2625 10.6167 2 12 2C13.3833 2 14.6833 2.2625 15.9 2.7875C17.1167 3.3125 18.175 4.025 19.075 4.925C19.975 5.825 20.6875 6.88333 21.2125 8.1C21.7375 9.31667 22 10.6167 22 12C22 13.3833 21.7375 14.6833 21.2125 15.9C20.6875 17.1167 19.975 18.175 19.075 19.075C18.175 19.975 17.1167 20.6875 15.9 21.2125C14.6833 21.7375 13.3833 22 12 22ZM12 20C14.2167 20 16.1042 19.2208 17.6625 17.6625C19.2208 16.1042 20 14.2167 20 12C20 9.78333 19.2208 7.89583 17.6625 6.3375C16.1042 4.77917 14.2167 4 12 4C9.78333 4 7.89583 4.77917 6.3375 6.3375C4.77917 7.89583 4 9.78333 4 12C4 14.2167 4.77917 16.1042 6.3375 17.6625C7.89583 19.2208 9.78333 20 12 20Z" fill="currentColor"/>
        </g>
    </symbol>
    <symbol id="tour" width="24" height="24" viewBox="0 0 24 24" fill="none" xmlns="http://www.w3.org/2000/svg">
        <mask id="mask0_1571_6831__tour" style="mask-type:alpha" maskUnits="userSpaceOnUse" x="0" y="0" width="24" height="24">
            <rect width="24" height="24" transform="matrix(-1 0 0 1 24 0)" fill="currentColor"/>
        </mask>
        <g mask="url(#mask0_1571_6831__tour)">
            <path d="M4.4 20.9994L10.75 14.6494L9.35 13.2494L3 19.5994L4.4 20.9994ZM18.05 20.2994C19.05 19.2994 19.7917 18.1744 20.275 16.9244C20.7583 15.6744 21 14.3994 21 13.0994C21 11.7994 20.7583 10.5327 20.275 9.29937C19.7917 8.06603 19.05 6.94937 18.05 5.94937C17.05 4.94937 15.9292 4.20353 14.6875 3.71187C13.4458 3.2202 12.175 2.97437 10.875 2.97437C9.575 2.97437 8.30417 3.2202 7.0625 3.71187C5.82083 4.20353 4.7 4.94937 3.7 5.94937L18.05 20.2994ZM17.85 17.2494L16.5 15.8994C16.7667 15.5494 17.0208 15.191 17.2625 14.8244C17.5042 14.4577 17.725 14.091 17.925 13.7244C18.125 13.3577 18.3 12.991 18.45 12.6244C18.6 12.2577 18.7333 11.8994 18.85 11.5494C19.0333 12.5327 19.0458 13.516 18.8875 14.4994C18.7292 15.4827 18.3833 16.3994 17.85 17.2494ZM15.05 14.4994L9.5 8.89937C10.2167 8.34937 10.9375 7.90353 11.6625 7.56187C12.3875 7.2202 13.0667 6.98687 13.7 6.86187C14.3333 6.73687 14.9042 6.71603 15.4125 6.79937C15.9208 6.8827 16.3167 7.06603 16.6 7.34937C16.8833 7.64937 17.0667 8.05353 17.15 8.56187C17.2333 9.0702 17.2125 9.6452 17.0875 10.2869C16.9625 10.9285 16.7292 11.6077 16.3875 12.3244C16.0458 13.041 15.6 13.766 15.05 14.4994ZM8.1 7.49937L6.7 6.14937C7.58333 5.61603 8.51667 5.26603 9.5 5.09937C10.4833 4.9327 11.4667 4.94937 12.45 5.14937C12.0833 5.26603 11.7167 5.39937 11.35 5.54937C10.9833 5.69937 10.6167 5.8702 10.25 6.06187C9.88333 6.25353 9.52083 6.4702 9.1625 6.71187C8.80417 6.95353 8.45 7.21603 8.1 7.49937Z" fill="currentColor"/>
        </g>
    </symbol>
    <symbol id="visibillity_off" width="24" height="24" viewBox="0 0 24 24" fill="none" xmlns="http://www.w3.org/2000/svg">
        <mask id="mask0_734_7338__visibillity_off" style="mask-type:alpha" maskUnits="userSpaceOnUse" x="0" y="0" width="24" height="24">
            <rect width="24" height="24" fill="currentColor"/>
        </mask>
        <g mask="url(#mask0_734_7338__visibillity_off)">
            <path d="M4 13C3.16667 13 2.45833 12.7083 1.875 12.125C1.29167 11.5417 1 10.8333 1 10C1 9.16667 1.29167 8.45833 1.875 7.875C2.45833 7.29167 3.16667 7 4 7C4.83333 7 5.54167 7.29167 6.125 7.875C6.70833 8.45833 7 9.16667 7 10C7 10.8333 6.70833 11.5417 6.125 12.125C5.54167 12.7083 4.83333 13 4 13ZM2 19V17H22V19H2ZM12 13C11.1667 13 10.4583 12.7083 9.875 12.125C9.29167 11.5417 9 10.8333 9 10C9 9.16667 9.29167 8.45833 9.875 7.875C10.4583 7.29167 11.1667 7 12 7C12.8333 7 13.5417 7.29167 14.125 7.875C14.7083 8.45833 15 9.16667 15 10C15 10.8333 14.7083 11.5417 14.125 12.125C13.5417 12.7083 12.8333 13 12 13ZM20 13C19.1667 13 18.4583 12.7083 17.875 12.125C17.2917 11.5417 17 10.8333 17 10C17 9.16667 17.2917 8.45833 17.875 7.875C18.4583 7.29167 19.1667 7 20 7C20.8333 7 21.5417 7.29167 22.125 7.875C22.7083 8.45833 23 9.16667 23 10C23 10.8333 22.7083 11.5417 22.125 12.125C21.5417 12.7083 20.8333 13 20 13Z" fill="currentColor"/>
        </g>
    </symbol>
    <symbol id="visibillity_on" width="24" height="24" viewBox="0 0 24 24" fill="none" xmlns="http://www.w3.org/2000/svg">
        <mask id="mask0_734_7339__visibillity_on" style="mask-type:alpha" maskUnits="userSpaceOnUse" x="0" y="0" width="24" height="24">
            <rect width="24" height="24" fill="currentColor"/>
        </mask>
        <g mask="url(#mask0_734_7339__visibillity_on)">
            <path d="M4 13C3.16667 13 2.45833 12.7083 1.875 12.125C1.29167 11.5417 1 10.8333 1 9.99999C1 9.16666 1.29167 8.45832 1.875 7.87499C2.45833 7.29165 3.16667 6.99999 4 6.99999C4.83333 6.99999 5.54167 7.29165 6.125 7.87499C6.70833 8.45832 7 9.16666 7 9.99999C7 10.8333 6.70833 11.5417 6.125 12.125C5.54167 12.7083 4.83333 13 4 13ZM20 13C19.1667 13 18.4583 12.7083 17.875 12.125C17.2917 11.5417 17 10.8333 17 9.99999C17 9.16666 17.2917 8.45832 17.875 7.87499C18.4583 7.29165 19.1667 6.99999 20 6.99999C20.8333 6.99999 21.5417 7.29165 22.125 7.87499C22.7083 8.45832 23 9.16666 23 9.99999C23 10.8333 22.7083 11.5417 22.125 12.125C21.5417 12.7083 20.8333 13 20 13ZM14.5 11.65L10.35 7.49999C10.5833 7.33332 10.8417 7.20832 11.125 7.12499C11.4083 7.04165 11.7 6.99999 12 6.99999C12.8333 6.99999 13.5417 7.29165 14.125 7.87499C14.7083 8.45832 15 9.16666 15 9.99999C15 10.3 14.9583 10.5917 14.875 10.875C14.7917 11.1583 14.6667 11.4167 14.5 11.65ZM19.8 22.6L16.2 19H2V17H14.2L1.4 4.19999L2.8 2.79999L21.2 21.2L19.8 22.6Z" fill="currentColor"/>
        </g>
    </symbol>
</svg>