<svg width="0" height="0" fill="none" style="visibility: hidden; position: absolute;" aria-hidden="true">
    <symbol id="add" width="24" height="24" viewBox="0 0 24 24" fill="none" xmlns="http://www.w3.org/2000/svg">
        <mask id="mask0_734_7318__add" style="mask-type:alpha" maskUnits="userSpaceOnUse" x="0" y="0" width="24" height="24">
            <rect width="24" height="24" fill="#D9D9D9"/>
        </mask>
        <g mask="url(#mask0_734_7318__add)">
            <path d="M11 21V13H3V11H11V3H13V11H21V13H13V21H11Z" fill="#121212"/>
        </g>
    </symbol>
    <symbol id="arrow_bottom" width="24" height="24" viewBox="0 0 24 24" fill="none" xmlns="http://www.w3.org/2000/svg">
        <mask id="mask0_734_7316__arrow_bottom" style="mask-type:alpha" maskUnits="userSpaceOnUse" x="-1" y="0" width="25" height="24">
            <rect x="-0.126953" width="24" height="24" fill="#D9D9D9"/>
        </mask>
        <g mask="url(#mask0_734_7316__arrow_bottom)">
            <path d="M21.7606 7.88751L11.7606 17.8875L1.76056 7.88751L3.53556 6.11251L11.7606 14.3375L19.9856 6.11251L21.7606 7.88751Z" fill="#121212"/>
        </g>
    </symbol>
    <symbol id="arrow_circle_left" width="24" height="24" viewBox="0 0 24 24" fill="none" xmlns="http://www.w3.org/2000/svg">
        <mask id="mask0_734_7330__arrow_circle_left" style="mask-type:alpha" maskUnits="userSpaceOnUse" x="0" y="0" width="25" height="25">
            <rect width="24" height="24" transform="matrix(-1 0 0 1 24.4327 0.355713)" fill="#D9D9D9"/>
        </mask>
        <g mask="url(#mask0_734_7330__arrow_circle_left)">
            <path d="M11.325 12L14.4 15.075L13 16.5L8.5 12L13 7.5L14.4 8.925L11.325 12ZM12 22C13.3833 22 14.6833 21.7375 15.9 21.2125C17.1167 20.6875 18.175 19.975 19.075 19.075C19.975 18.175 20.6875 17.1167 21.2125 15.9C21.7375 14.6833 22 13.3833 22 12C22 10.6167 21.7375 9.31667 21.2125 8.1C20.6875 6.88333 19.975 5.825 19.075 4.925C18.175 4.025 17.1167 3.3125 15.9 2.7875C14.6833 2.2625 13.3833 2 12 2C10.6167 2 9.31667 2.2625 8.1 2.7875C6.88333 3.3125 5.825 4.025 4.925 4.925C4.025 5.825 3.3125 6.88333 2.7875 8.1C2.2625 9.31667 2 10.6167 2 12C2 13.3833 2.2625 14.6833 2.7875 15.9C3.3125 17.1167 4.025 18.175 4.925 19.075C5.825 19.975 6.88333 20.6875 8.1 21.2125C9.31667 21.7375 10.6167 22 12 22Z" fill="#121212"/>
        </g>
    </symbol>
    <symbol id="arrow_circle_right" width="24" height="24" viewBox="0 0 24 24" fill="none" xmlns="http://www.w3.org/2000/svg">
        <mask id="mask0_734_7331__arrow_circle_right" style="mask-type:alpha" maskUnits="userSpaceOnUse" x="0" y="0" width="24" height="24">
            <rect x="6.10352e-05" width="24" height="24" fill="#D9D9D9"/>
        </mask>
        <g mask="url(#mask0_734_7331__arrow_circle_right)">
            <path d="M12.6751 12L9.60006 15.075L11.0001 16.5L15.5001 12L11.0001 7.5L9.60006 8.925L12.6751 12ZM12.0001 22C10.6167 22 9.31673 21.7375 8.10006 21.2125C6.88339 20.6875 5.82506 19.975 4.92506 19.075C4.02506 18.175 3.31256 17.1167 2.78756 15.9C2.26256 14.6833 2.00006 13.3833 2.00006 12C2.00006 10.6167 2.26256 9.31667 2.78756 8.1C3.31256 6.88333 4.02506 5.825 4.92506 4.925C5.82506 4.025 6.88339 3.3125 8.10006 2.7875C9.31673 2.2625 10.6167 2 12.0001 2C13.3834 2 14.6834 2.2625 15.9001 2.7875C17.1167 3.3125 18.1751 4.025 19.0751 4.925C19.9751 5.825 20.6876 6.88333 21.2126 8.1C21.7376 9.31667 22.0001 10.6167 22.0001 12C22.0001 13.3833 21.7376 14.6833 21.2126 15.9C20.6876 17.1167 19.9751 18.175 19.0751 19.075C18.1751 19.975 17.1167 20.6875 15.9001 21.2125C14.6834 21.7375 13.3834 22 12.0001 22Z" fill="#121212"/>
        </g>
    </symbol>
    <symbol id="arrow_left" width="24" height="24" viewBox="0 0 24 24" fill="none" xmlns="http://www.w3.org/2000/svg">
        <mask id="mask0_734_7317__arrow_left" style="mask-type:alpha" maskUnits="userSpaceOnUse" x="0" y="0" width="24" height="24">
            <rect width="24" height="24" fill="#D9D9D9"/>
        </mask>
        <g mask="url(#mask0_734_7317__arrow_left)">
            <path d="M16 22L6 12L16 2L17.775 3.775L9.55 12L17.775 20.225L16 22Z" fill="#121212"/>
        </g>
    </symbol>
    <symbol id="arrow_right" width="24" height="24" viewBox="0 0 24 24" fill="none" xmlns="http://www.w3.org/2000/svg">
        <mask id="mask0_734_7315__arrow_right" style="mask-type:alpha" maskUnits="userSpaceOnUse" x="0" y="0" width="24" height="24">
            <rect width="24" height="24" fill="#D9D9D9"/>
        </mask>
        <g mask="url(#mask0_734_7315__arrow_right)">
            <path d="M8.025 22L6.25 20.225L14.475 12L6.25 3.775L8.025 2L18.025 12L8.025 22Z" fill="#121212"/>
        </g>
    </symbol>
    <symbol id="arrow_top" width="24" height="24" viewBox="0 0 24 24" fill="none" xmlns="http://www.w3.org/2000/svg">
        <mask id="mask0_734_7313__arrow_top" style="mask-type:alpha" maskUnits="userSpaceOnUse" x="0" y="0" width="25" height="24">
            <rect x="0.123047" width="24" height="24" fill="#D9D9D9"/>
        </mask>
        <g mask="url(#mask0_734_7313__arrow_top)">
            <path d="M2.0105 16.1125L12.0105 6.11249L22.0105 16.1125L20.2355 17.8875L12.0105 9.66249L3.7855 17.8875L2.0105 16.1125Z" fill="#121212"/>
        </g>
    </symbol>
    <symbol id="calendar" width="24" height="24" viewBox="0 0 24 24" fill="none" xmlns="http://www.w3.org/2000/svg">
        <mask id="mask0_734_7342__calendar" style="mask-type:alpha" maskUnits="userSpaceOnUse" x="0" y="0" width="24" height="24">
            <rect width="24" height="24" fill="#D9D9D9"/>
        </mask>
        <g mask="url(#mask0_734_7342__calendar)">
            <path d="M5 22C4.45 22 3.97917 21.8042 3.5875 21.4125C3.19583 21.0208 3 20.55 3 20V6C3 5.45 3.19583 4.97917 3.5875 4.5875C3.97917 4.19583 4.45 4 5 4H6V2H8V4H16V2H18V4H19C19.55 4 20.0208 4.19583 20.4125 4.5875C20.8042 4.97917 21 5.45 21 6V20C21 20.55 20.8042 21.0208 20.4125 21.4125C20.0208 21.8042 19.55 22 19 22H5ZM5 20H19V10H5V20ZM5 8H19V6H5V8ZM12 14C11.7167 14 11.4792 13.9042 11.2875 13.7125C11.0958 13.5208 11 13.2833 11 13C11 12.7167 11.0958 12.4792 11.2875 12.2875C11.4792 12.0958 11.7167 12 12 12C12.2833 12 12.5208 12.0958 12.7125 12.2875C12.9042 12.4792 13 12.7167 13 13C13 13.2833 12.9042 13.5208 12.7125 13.7125C12.5208 13.9042 12.2833 14 12 14ZM8 14C7.71667 14 7.47917 13.9042 7.2875 13.7125C7.09583 13.5208 7 13.2833 7 13C7 12.7167 7.09583 12.4792 7.2875 12.2875C7.47917 12.0958 7.71667 12 8 12C8.28333 12 8.52083 12.0958 8.7125 12.2875C8.90417 12.4792 9 12.7167 9 13C9 13.2833 8.90417 13.5208 8.7125 13.7125C8.52083 13.9042 8.28333 14 8 14ZM16 14C15.7167 14 15.4792 13.9042 15.2875 13.7125C15.0958 13.5208 15 13.2833 15 13C15 12.7167 15.0958 12.4792 15.2875 12.2875C15.4792 12.0958 15.7167 12 16 12C16.2833 12 16.5208 12.0958 16.7125 12.2875C16.9042 12.4792 17 12.7167 17 13C17 13.2833 16.9042 13.5208 16.7125 13.7125C16.5208 13.9042 16.2833 14 16 14ZM12 18C11.7167 18 11.4792 17.9042 11.2875 17.7125C11.0958 17.5208 11 17.2833 11 17C11 16.7167 11.0958 16.4792 11.2875 16.2875C11.4792 16.0958 11.7167 16 12 16C12.2833 16 12.5208 16.0958 12.7125 16.2875C12.9042 16.4792 13 16.7167 13 17C13 17.2833 12.9042 17.5208 12.7125 17.7125C12.5208 17.9042 12.2833 18 12 18ZM8 18C7.71667 18 7.47917 17.9042 7.2875 17.7125C7.09583 17.5208 7 17.2833 7 17C7 16.7167 7.09583 16.4792 7.2875 16.2875C7.47917 16.0958 7.71667 16 8 16C8.28333 16 8.52083 16.0958 8.7125 16.2875C8.90417 16.4792 9 16.7167 9 17C9 17.2833 8.90417 17.5208 8.7125 17.7125C8.52083 17.9042 8.28333 18 8 18ZM16 18C15.7167 18 15.4792 17.9042 15.2875 17.7125C15.0958 17.5208 15 17.2833 15 17C15 16.7167 15.0958 16.4792 15.2875 16.2875C15.4792 16.0958 15.7167 16 16 16C16.2833 16 16.5208 16.0958 16.7125 16.2875C16.9042 16.4792 17 16.7167 17 17C17 17.2833 16.9042 17.5208 16.7125 17.7125C16.5208 17.9042 16.2833 18 16 18Z" fill="#121212"/>
        </g>
    </symbol>
    <symbol id="checkbox_off" width="24" height="24" viewBox="0 0 24 24" fill="none" xmlns="http://www.w3.org/2000/svg">
        <mask id="mask0_734_7332__checkbox_off" style="mask-type:alpha" maskUnits="userSpaceOnUse" x="0" y="0" width="25" height="25">
            <rect x="0.0837402" y="0.224121" width="24" height="24" fill="#D9D9D9"/>
        </mask>
        <g mask="url(#mask0_734_7332__checkbox_off)">
            <path d="M5.08374 21.2241C4.53374 21.2241 4.06291 21.0283 3.67124 20.6366C3.27957 20.245 3.08374 19.7741 3.08374 19.2241V5.22412C3.08374 4.67412 3.27957 4.20329 3.67124 3.81162C4.06291 3.41995 4.53374 3.22412 5.08374 3.22412H19.0837C19.6337 3.22412 20.1046 3.41995 20.4962 3.81162C20.8879 4.20329 21.0837 4.67412 21.0837 5.22412V19.2241C21.0837 19.7741 20.8879 20.245 20.4962 20.6366C20.1046 21.0283 19.6337 21.2241 19.0837 21.2241H5.08374ZM5.08374 19.2241H19.0837V5.22412H5.08374V19.2241Z" fill="#121212"/>
        </g>
    </symbol>
    <symbol id="checkbox_on" width="24" height="24" viewBox="0 0 24 24" fill="none" xmlns="http://www.w3.org/2000/svg">
        <mask id="mask0_734_7333__checkbox_on" style="mask-type:alpha" maskUnits="userSpaceOnUse" x="0" y="0" width="25" height="25">
            <rect x="0.38208" y="0.260254" width="24" height="24" fill="#D9D9D9"/>
        </mask>
        <g mask="url(#mask0_734_7333__checkbox_on)">
            <path d="M10.9821 16.4603L18.0321 9.41025L16.6321 8.01025L10.9821 13.6603L8.13208 10.8103L6.73208 12.2103L10.9821 16.4603ZM5.38208 21.2603C4.83208 21.2603 4.36125 21.0644 3.96958 20.6728C3.57791 20.2811 3.38208 19.8103 3.38208 19.2603V5.26025C3.38208 4.71025 3.57791 4.23942 3.96958 3.84775C4.36125 3.45609 4.83208 3.26025 5.38208 3.26025H19.3821C19.9321 3.26025 20.4029 3.45609 20.7946 3.84775C21.1862 4.23942 21.3821 4.71025 21.3821 5.26025V19.2603C21.3821 19.8103 21.1862 20.2811 20.7946 20.6728C20.4029 21.0644 19.9321 21.2603 19.3821 21.2603H5.38208Z" fill="#121212"/>
        </g>
    </symbol>
    <symbol id="chevron_bottom" width="24" height="24" viewBox="0 0 24 24" fill="none" xmlns="http://www.w3.org/2000/svg">
        <mask id="mask0_734_7325__chevron_bottom" style="mask-type:alpha" maskUnits="userSpaceOnUse" x="0" y="0" width="24" height="24">
            <rect width="24" height="24" fill="#D9D9D9"/>
        </mask>
        <g mask="url(#mask0_734_7325__chevron_bottom)">
            <path d="M11.7 12.9L16.3 8.29999L17.7 9.69999L11.7 15.7L5.70001 9.69999L7.10001 8.29999L11.7 12.9Z" fill="#121212"/>
        </g>
    </symbol>
    <symbol id="chevron_left" width="24" height="24" viewBox="0 0 24 24" fill="none" xmlns="http://www.w3.org/2000/svg">
        <mask id="mask0_734_7322__chevron_left" style="mask-type:alpha" maskUnits="userSpaceOnUse" x="0" y="0" width="24" height="24">
            <rect width="24" height="24" fill="#D9D9D9"/>
        </mask>
        <g mask="url(#mask0_734_7322__chevron_left)">
            <path d="M14 18L8 12L14 6L15.4 7.4L10.8 12L15.4 16.6L14 18Z" fill="#121212"/>
        </g>
    </symbol>
    <symbol id="chevron_right" width="24" height="24" viewBox="0 0 24 24" fill="none" xmlns="http://www.w3.org/2000/svg">
        <mask id="mask0_734_7323__chevron_right" style="mask-type:alpha" maskUnits="userSpaceOnUse" x="0" y="0" width="24" height="24">
            <rect width="24" height="24" fill="#D9D9D9"/>
        </mask>
        <g mask="url(#mask0_734_7323__chevron_right)">
            <path d="M12.6 12L8 7.4L9.4 6L15.4 12L9.4 18L8 16.6L12.6 12Z" fill="#121212"/>
        </g>
    </symbol>
    <symbol id="chevron_top" width="24" height="24" viewBox="0 0 24 24" fill="none" xmlns="http://www.w3.org/2000/svg">
        <mask id="mask0_734_7324__chevron_top" style="mask-type:alpha" maskUnits="userSpaceOnUse" x="0" y="0" width="24" height="24">
            <rect width="24" height="24" fill="#D9D9D9"/>
        </mask>
        <g mask="url(#mask0_734_7324__chevron_top)">
            <path d="M11.7 11.1L7.10001 15.7L5.70001 14.3L11.7 8.30001L17.7 14.3L16.3 15.7L11.7 11.1Z" fill="#121212"/>
        </g>
    </symbol>
    <symbol id="close" width="24" height="24" viewBox="0 0 24 24" fill="none" xmlns="http://www.w3.org/2000/svg">
        <mask id="mask0_734_7319__close" style="mask-type:alpha" maskUnits="userSpaceOnUse" x="0" y="0" width="24" height="24">
            <rect width="24" height="24" fill="#D9D9D9"/>
        </mask>
        <g mask="url(#mask0_734_7319__close)">
            <path d="M6.4 19L5 17.6L10.6 12L5 6.4L6.4 5L12 10.6L17.6 5L19 6.4L13.4 12L19 17.6L17.6 19L12 13.4L6.4 19Z" fill="#121212"/>
        </g>
    </symbol>
    <symbol id="customer" width="24" height="24" viewBox="0 0 24 24" fill="none" xmlns="http://www.w3.org/2000/svg">
        <mask id="mask0_734_7349__customer" style="mask-type:alpha" maskUnits="userSpaceOnUse" x="0" y="0" width="24" height="24">
            <rect width="24" height="24" fill="#D9D9D9"/>
        </mask>
        <g mask="url(#mask0_734_7349__customer)">
            <path d="M11 21V19H19V11.9C19 9.95 18.3208 8.29583 16.9625 6.9375C15.6042 5.57917 13.95 4.9 12 4.9C10.05 4.9 8.39583 5.57917 7.0375 6.9375C5.67917 8.29583 5 9.95 5 11.9V18H4C3.45 18 2.97917 17.8042 2.5875 17.4125C2.19583 17.0208 2 16.55 2 16V14C2 13.65 2.0875 13.3208 2.2625 13.0125C2.4375 12.7042 2.68333 12.4583 3 12.275L3.075 10.95C3.20833 9.81667 3.5375 8.76667 4.0625 7.8C4.5875 6.83333 5.24583 5.99167 6.0375 5.275C6.82917 4.55833 7.7375 4 8.7625 3.6C9.7875 3.2 10.8667 3 12 3C13.1333 3 14.2083 3.2 15.225 3.6C16.2417 4 17.15 4.55417 17.95 5.2625C18.75 5.97083 19.4083 6.80833 19.925 7.775C20.4417 8.74167 20.775 9.79167 20.925 10.925L21 12.225C21.3167 12.375 21.5625 12.6 21.7375 12.9C21.9125 13.2 22 13.5167 22 13.85V16.15C22 16.4833 21.9125 16.8 21.7375 17.1C21.5625 17.4 21.3167 17.625 21 17.775V19C21 19.55 20.8042 20.0208 20.4125 20.4125C20.0208 20.8042 19.55 21 19 21H11ZM9 14C8.71667 14 8.47917 13.9042 8.2875 13.7125C8.09583 13.5208 8 13.2833 8 13C8 12.7167 8.09583 12.4792 8.2875 12.2875C8.47917 12.0958 8.71667 12 9 12C9.28333 12 9.52083 12.0958 9.7125 12.2875C9.90417 12.4792 10 12.7167 10 13C10 13.2833 9.90417 13.5208 9.7125 13.7125C9.52083 13.9042 9.28333 14 9 14ZM15 14C14.7167 14 14.4792 13.9042 14.2875 13.7125C14.0958 13.5208 14 13.2833 14 13C14 12.7167 14.0958 12.4792 14.2875 12.2875C14.4792 12.0958 14.7167 12 15 12C15.2833 12 15.5208 12.0958 15.7125 12.2875C15.9042 12.4792 16 12.7167 16 13C16 13.2833 15.9042 13.5208 15.7125 13.7125C15.5208 13.9042 15.2833 14 15 14ZM6.025 12.45C5.90833 10.6833 6.44167 9.16667 7.625 7.9C8.80833 6.63333 10.2833 6 12.05 6C13.5333 6 14.8375 6.47083 15.9625 7.4125C17.0875 8.35417 17.7667 9.55833 18 11.025C16.4833 11.0083 15.0875 10.6 13.8125 9.8C12.5375 9 11.5583 7.91667 10.875 6.55C10.6083 7.88333 10.0458 9.07083 9.1875 10.1125C8.32917 11.1542 7.275 11.9333 6.025 12.45Z" fill="#121212"/>
        </g>
    </symbol>
    <symbol id="delete" width="24" height="24" viewBox="0 0 24 24" fill="none" xmlns="http://www.w3.org/2000/svg">
        <mask id="mask0_734_7351__delete" style="mask-type:alpha" maskUnits="userSpaceOnUse" x="0" y="0" width="24" height="24">
            <rect width="24" height="24" fill="#D9D9D9"/>
        </mask>
        <g mask="url(#mask0_734_7351__delete)">
            <path d="M7 13H17V11H7V13ZM12 22C10.6167 22 9.31667 21.7375 8.1 21.2125C6.88333 20.6875 5.825 19.975 4.925 19.075C4.025 18.175 3.3125 17.1167 2.7875 15.9C2.2625 14.6833 2 13.3833 2 12C2 10.6167 2.2625 9.31667 2.7875 8.1C3.3125 6.88333 4.025 5.825 4.925 4.925C5.825 4.025 6.88333 3.3125 8.1 2.7875C9.31667 2.2625 10.6167 2 12 2C13.3833 2 14.6833 2.2625 15.9 2.7875C17.1167 3.3125 18.175 4.025 19.075 4.925C19.975 5.825 20.6875 6.88333 21.2125 8.1C21.7375 9.31667 22 10.6167 22 12C22 13.3833 21.7375 14.6833 21.2125 15.9C20.6875 17.1167 19.975 18.175 19.075 19.075C18.175 19.975 17.1167 20.6875 15.9 21.2125C14.6833 21.7375 13.3833 22 12 22Z" fill="#121212"/>
        </g>
    </symbol>
    <symbol id="drag_handle" width="24" height="24" viewBox="0 0 24 24" fill="none" xmlns="http://www.w3.org/2000/svg">
        <mask id="mask0_734_7336__drag_handle" style="mask-type:alpha" maskUnits="userSpaceOnUse" x="0" y="0" width="24" height="24">
            <rect width="24" height="24" fill="#D9D9D9"/>
        </mask>
        <g mask="url(#mask0_734_7336__drag_handle)">
            <path d="M4 15V13H20V15H4ZM4 11V9H20V11H4Z" fill="#121212"/>
        </g>
    </symbol>
    <symbol id="drag_indicator" width="24" height="24" viewBox="0 0 24 24" fill="none" xmlns="http://www.w3.org/2000/svg">
        <mask id="mask0_734_7337__drag_indicator" style="mask-type:alpha" maskUnits="userSpaceOnUse" x="0" y="0" width="24" height="24">
            <rect width="24" height="24" fill="#D9D9D9"/>
        </mask>
        <g mask="url(#mask0_734_7337__drag_indicator)">
            <path d="M9 20C8.45 20 7.97917 19.8042 7.5875 19.4125C7.19583 19.0208 7 18.55 7 18C7 17.45 7.19583 16.9792 7.5875 16.5875C7.97917 16.1958 8.45 16 9 16C9.55 16 10.0208 16.1958 10.4125 16.5875C10.8042 16.9792 11 17.45 11 18C11 18.55 10.8042 19.0208 10.4125 19.4125C10.0208 19.8042 9.55 20 9 20ZM15 20C14.45 20 13.9792 19.8042 13.5875 19.4125C13.1958 19.0208 13 18.55 13 18C13 17.45 13.1958 16.9792 13.5875 16.5875C13.9792 16.1958 14.45 16 15 16C15.55 16 16.0208 16.1958 16.4125 16.5875C16.8042 16.9792 17 17.45 17 18C17 18.55 16.8042 19.0208 16.4125 19.4125C16.0208 19.8042 15.55 20 15 20ZM9 14C8.45 14 7.97917 13.8042 7.5875 13.4125C7.19583 13.0208 7 12.55 7 12C7 11.45 7.19583 10.9792 7.5875 10.5875C7.97917 10.1958 8.45 10 9 10C9.55 10 10.0208 10.1958 10.4125 10.5875C10.8042 10.9792 11 11.45 11 12C11 12.55 10.8042 13.0208 10.4125 13.4125C10.0208 13.8042 9.55 14 9 14ZM15 14C14.45 14 13.9792 13.8042 13.5875 13.4125C13.1958 13.0208 13 12.55 13 12C13 11.45 13.1958 10.9792 13.5875 10.5875C13.9792 10.1958 14.45 10 15 10C15.55 10 16.0208 10.1958 16.4125 10.5875C16.8042 10.9792 17 11.45 17 12C17 12.55 16.8042 13.0208 16.4125 13.4125C16.0208 13.8042 15.55 14 15 14ZM9 8C8.45 8 7.97917 7.80417 7.5875 7.4125C7.19583 7.02083 7 6.55 7 6C7 5.45 7.19583 4.97917 7.5875 4.5875C7.97917 4.19583 8.45 4 9 4C9.55 4 10.0208 4.19583 10.4125 4.5875C10.8042 4.97917 11 5.45 11 6C11 6.55 10.8042 7.02083 10.4125 7.4125C10.0208 7.80417 9.55 8 9 8ZM15 8C14.45 8 13.9792 7.80417 13.5875 7.4125C13.1958 7.02083 13 6.55 13 6C13 5.45 13.1958 4.97917 13.5875 4.5875C13.9792 4.19583 14.45 4 15 4C15.55 4 16.0208 4.19583 16.4125 4.5875C16.8042 4.97917 17 5.45 17 6C17 6.55 16.8042 7.02083 16.4125 7.4125C16.0208 7.80417 15.55 8 15 8Z" fill="#121212"/>
        </g>
    </symbol>
    <symbol id="dropdown_off" width="24" height="24" viewBox="0 0 24 24" fill="none" xmlns="http://www.w3.org/2000/svg">
        <mask id="mask0_734_7328__dropdown_off" style="mask-type:alpha" maskUnits="userSpaceOnUse" x="0" y="0" width="25" height="24">
            <rect x="0.0440674" width="24" height="24" fill="#D9D9D9"/>
        </mask>
        <g mask="url(#mask0_734_7328__dropdown_off)">
            <path d="M12.0441 15L7.04407 10H17.0441L12.0441 15Z" fill="#121212"/>
        </g>
    </symbol>
    <symbol id="dropdown_on" width="24" height="24" viewBox="0 0 24 24" fill="none" xmlns="http://www.w3.org/2000/svg">
        <mask id="mask0_734_7329__dropdown_on" style="mask-type:alpha" maskUnits="userSpaceOnUse" x="0" y="0" width="24" height="24">
            <rect width="24" height="24" fill="#D9D9D9"/>
        </mask>
        <g mask="url(#mask0_734_7329__dropdown_on)">
            <path d="M7 14L12 9L17 14H7Z" fill="#121212"/>
        </g>
    </symbol>
    <symbol id="favorite_off" width="24" height="24" viewBox="0 0 24 24" fill="none" xmlns="http://www.w3.org/2000/svg">
        <mask id="mask0_734_7346__favorite_off" style="mask-type:alpha" maskUnits="userSpaceOnUse" x="0" y="0" width="24" height="24">
            <rect width="24" height="24" fill="#D9D9D9"/>
        </mask>
        <g mask="url(#mask0_734_7346__favorite_off)">
            <path d="M12 21L10.55 19.7C8.86667 18.1834 7.475 16.875 6.375 15.775C5.275 14.675 4.4 13.6875 3.75 12.8125C3.1 11.9375 2.64583 11.1334 2.3875 10.4C2.12917 9.66669 2 8.91669 2 8.15002C2 6.58336 2.525 5.27502 3.575 4.22502C4.625 3.17502 5.93333 2.65002 7.5 2.65002C8.36667 2.65002 9.19167 2.83336 9.975 3.20002C10.7583 3.56669 11.4333 4.08336 12 4.75002C12.5667 4.08336 13.2417 3.56669 14.025 3.20002C14.8083 2.83336 15.6333 2.65002 16.5 2.65002C18.0667 2.65002 19.375 3.17502 20.425 4.22502C21.475 5.27502 22 6.58336 22 8.15002C22 8.91669 21.8708 9.66669 21.6125 10.4C21.3542 11.1334 20.9 11.9375 20.25 12.8125C19.6 13.6875 18.725 14.675 17.625 15.775C16.525 16.875 15.1333 18.1834 13.45 19.7L12 21ZM12 18.3C13.6 16.8667 14.9167 15.6375 15.95 14.6125C16.9833 13.5875 17.8 12.6959 18.4 11.9375C19 11.1792 19.4167 10.5042 19.65 9.91252C19.8833 9.32086 20 8.73336 20 8.15002C20 7.15002 19.6667 6.31669 19 5.65002C18.3333 4.98336 17.5 4.65002 16.5 4.65002C15.7167 4.65002 14.9917 4.87086 14.325 5.31252C13.6583 5.75419 13.2 6.31669 12.95 7.00002H11.05C10.8 6.31669 10.3417 5.75419 9.675 5.31252C9.00833 4.87086 8.28333 4.65002 7.5 4.65002C6.5 4.65002 5.66667 4.98336 5 5.65002C4.33333 6.31669 4 7.15002 4 8.15002C4 8.73336 4.11667 9.32086 4.35 9.91252C4.58333 10.5042 5 11.1792 5.6 11.9375C6.2 12.6959 7.01667 13.5875 8.05 14.6125C9.08333 15.6375 10.4 16.8667 12 18.3Z" fill="#121212"/>
        </g>
    </symbol>
    <symbol id="favorite_on" width="24" height="24" viewBox="0 0 24 24" fill="none" xmlns="http://www.w3.org/2000/svg">
        <mask id="mask0_734_7347__favorite_on" style="mask-type:alpha" maskUnits="userSpaceOnUse" x="0" y="0" width="24" height="24">
            <rect width="24" height="24" fill="#D9D9D9"/>
        </mask>
        <g mask="url(#mask0_734_7347__favorite_on)">
            <path d="M12 21L10.55 19.7C8.86667 18.1834 7.475 16.875 6.375 15.775C5.275 14.675 4.4 13.6875 3.75 12.8125C3.1 11.9375 2.64583 11.1334 2.3875 10.4C2.12917 9.66669 2 8.91669 2 8.15002C2 6.58336 2.525 5.27502 3.575 4.22502C4.625 3.17502 5.93333 2.65002 7.5 2.65002C8.36667 2.65002 9.19167 2.83336 9.975 3.20002C10.7583 3.56669 11.4333 4.08336 12 4.75002C12.5667 4.08336 13.2417 3.56669 14.025 3.20002C14.8083 2.83336 15.6333 2.65002 16.5 2.65002C18.0667 2.65002 19.375 3.17502 20.425 4.22502C21.475 5.27502 22 6.58336 22 8.15002C22 8.91669 21.8708 9.66669 21.6125 10.4C21.3542 11.1334 20.9 11.9375 20.25 12.8125C19.6 13.6875 18.725 14.675 17.625 15.775C16.525 16.875 15.1333 18.1834 13.45 19.7L12 21Z" fill="#121212"/>
        </g>
    </symbol>
    <symbol id="image" width="24" height="24" viewBox="0 0 24 24" fill="none" xmlns="http://www.w3.org/2000/svg">
        <mask id="mask0_734_7350__image" style="mask-type:alpha" maskUnits="userSpaceOnUse" x="0" y="0" width="24" height="24">
            <rect width="24" height="24" fill="#D9D9D9"/>
        </mask>
        <g mask="url(#mask0_734_7350__image)">
            <path d="M4 20C3.45 20 2.97917 19.8042 2.5875 19.4125C2.19583 19.0208 2 18.55 2 18V6C2 5.45 2.19583 4.97917 2.5875 4.5875C2.97917 4.19583 3.45 4 4 4H20C20.55 4 21.0208 4.19583 21.4125 4.5875C21.8042 4.97917 22 5.45 22 6V18C22 18.55 21.8042 19.0208 21.4125 19.4125C21.0208 19.8042 20.55 20 20 20H4ZM4 18H20V6H4V18ZM6 16H18L14.25 11L11.25 15L9 12L6 16Z" fill="#121212"/>
        </g>
    </symbol>
    <symbol id="location" width="24" height="24" viewBox="0 0 24 24" fill="none" xmlns="http://www.w3.org/2000/svg">
        <mask id="mask0_734_7344__location" style="mask-type:alpha" maskUnits="userSpaceOnUse" x="0" y="0" width="24" height="24">
            <rect width="24" height="24" fill="#D9D9D9"/>
        </mask>
        <g mask="url(#mask0_734_7344__location)">
            <path d="M12 16.475C13.65 15.1417 14.8958 13.8583 15.7375 12.625C16.5792 11.3917 17 10.2333 17 9.15C17 7.65 16.5333 6.41667 15.6 5.45C14.6667 4.48333 13.4667 4 12 4C10.5333 4 9.33333 4.48333 8.4 5.45C7.46667 6.41667 7 7.65 7 9.15C7 10.2333 7.42083 11.3917 8.2625 12.625C9.10417 13.8583 10.35 15.1417 12 16.475ZM12 19C9.65 17.2667 7.89583 15.5833 6.7375 13.95C5.57917 12.3167 5 10.7167 5 9.15C5 7.06667 5.65 5.35417 6.95 4.0125C8.25 2.67083 9.93333 2 12 2C14.0667 2 15.75 2.67083 17.05 4.0125C18.35 5.35417 19 7.06667 19 9.15C19 10.7167 18.4208 12.3167 17.2625 13.95C16.1042 15.5833 14.35 17.2667 12 19ZM12 11C12.55 11 13.0208 10.8042 13.4125 10.4125C13.8042 10.0208 14 9.55 14 9C14 8.45 13.8042 7.97917 13.4125 7.5875C13.0208 7.19583 12.55 7 12 7C11.45 7 10.9792 7.19583 10.5875 7.5875C10.1958 7.97917 10 8.45 10 9C10 9.55 10.1958 10.0208 10.5875 10.4125C10.9792 10.8042 11.45 11 12 11ZM5 22V20H19V22H5Z" fill="#121212"/>
        </g>
    </symbol>
    <symbol id="map" width="24" height="24" viewBox="0 0 24 24" fill="none" xmlns="http://www.w3.org/2000/svg">
        <mask id="mask0_734_7340__map" style="mask-type:alpha" maskUnits="userSpaceOnUse" x="0" y="0" width="24" height="24">
            <rect width="24" height="24" fill="#D9D9D9"/>
        </mask>
        <g mask="url(#mask0_734_7340__map)">
            <path d="M15 21L9 18.9L4.35 20.7C4.01667 20.8333 3.70833 20.7958 3.425 20.5875C3.14167 20.3792 3 20.1 3 19.75V5.75C3 5.53333 3.0625 5.34167 3.1875 5.175C3.3125 5.00833 3.48333 4.88333 3.7 4.8L9 3L15 5.1L19.65 3.3C19.9833 3.16667 20.2917 3.20417 20.575 3.4125C20.8583 3.62083 21 3.9 21 4.25V18.25C21 18.4667 20.9375 18.6583 20.8125 18.825C20.6875 18.9917 20.5167 19.1167 20.3 19.2L15 21ZM14 18.55V6.85L10 5.45V17.15L14 18.55ZM16 18.55L19 17.55V5.7L16 6.85V18.55ZM5 18.3L8 17.15V5.45L5 6.45V18.3Z" fill="#121212"/>
        </g>
    </symbol>
    <symbol id="map_search" width="24" height="24" viewBox="0 0 24 24" fill="none" xmlns="http://www.w3.org/2000/svg">
        <mask id="mask0_734_7341__map_search" style="mask-type:alpha" maskUnits="userSpaceOnUse" x="0" y="0" width="24" height="24">
            <rect width="24" height="24" fill="#D9D9D9"/>
        </mask>
        <g mask="url(#mask0_734_7341__map_search)">
            <path d="M4.35 20.7C4.01667 20.8333 3.70833 20.7958 3.425 20.5875C3.14167 20.3792 3 20.1 3 19.75V5.75C3 5.53333 3.0625 5.34167 3.1875 5.175C3.3125 5.00833 3.48333 4.88333 3.7 4.8L9 3L15 5.1L19.65 3.3C19.9833 3.16667 20.2917 3.20417 20.575 3.4125C20.8583 3.62083 21 3.9 21 4.25V12.675C20.75 12.2917 20.4542 11.9417 20.1125 11.625C19.7708 11.3083 19.4 11.0333 19 10.8V5.7L16 6.85V10C15.65 10 15.3083 10.0292 14.975 10.0875C14.6417 10.1458 14.3167 10.2333 14 10.35V6.85L10 5.45V18.525L4.35 20.7ZM5 18.3L8 17.15V5.45L5 6.45V18.3ZM16 18C16.5667 18 17.0375 17.8333 17.4125 17.5C17.7875 17.1667 17.9833 16.6667 18 16C18.0167 15.4333 17.8292 14.9583 17.4375 14.575C17.0458 14.1917 16.5667 14 16 14C15.4333 14 14.9583 14.1917 14.575 14.575C14.1917 14.9583 14 15.4333 14 16C14 16.5667 14.1917 17.0417 14.575 17.425C14.9583 17.8083 15.4333 18 16 18ZM16 20C14.9 20 13.9583 19.6083 13.175 18.825C12.3917 18.0417 12 17.1 12 16C12 14.9 12.3917 13.9583 13.175 13.175C13.9583 12.3917 14.9 12 16 12C17.1 12 18.0417 12.3917 18.825 13.175C19.6083 13.9583 20 14.9 20 16C20 16.3833 19.9542 16.7458 19.8625 17.0875C19.7708 17.4292 19.6333 17.75 19.45 18.05L22 20.6L20.6 22L18.05 19.45C17.75 19.6333 17.4292 19.7708 17.0875 19.8625C16.7458 19.9542 16.3833 20 16 20Z" fill="#121212"/>
        </g>
    </symbol>
    <symbol id="more" width="24" height="24" viewBox="0 0 24 24" fill="none" xmlns="http://www.w3.org/2000/svg">
        <mask id="mask0_734_7314__more" style="mask-type:alpha" maskUnits="userSpaceOnUse" x="0" y="0" width="25" height="25">
            <rect x="0.446045" y="0.252686" width="24" height="24" fill="#D9D9D9"/>
        </mask>
        <g mask="url(#mask0_734_7314__more)">
            <path d="M6.44604 14.2527C5.89604 14.2527 5.42521 14.0569 5.03354 13.6652C4.64188 13.2735 4.44604 12.8027 4.44604 12.2527C4.44604 11.7027 4.64188 11.2319 5.03354 10.8402C5.42521 10.4485 5.89604 10.2527 6.44604 10.2527C6.99604 10.2527 7.46688 10.4485 7.85855 10.8402C8.25021 11.2319 8.44604 11.7027 8.44604 12.2527C8.44604 12.8027 8.25021 13.2735 7.85855 13.6652C7.46688 14.0569 6.99604 14.2527 6.44604 14.2527ZM12.446 14.2527C11.896 14.2527 11.4252 14.0569 11.0335 13.6652C10.6419 13.2735 10.446 12.8027 10.446 12.2527C10.446 11.7027 10.6419 11.2319 11.0335 10.8402C11.4252 10.4485 11.896 10.2527 12.446 10.2527C12.996 10.2527 13.4669 10.4485 13.8585 10.8402C14.2502 11.2319 14.446 11.7027 14.446 12.2527C14.446 12.8027 14.2502 13.2735 13.8585 13.6652C13.4669 14.0569 12.996 14.2527 12.446 14.2527ZM18.446 14.2527C17.896 14.2527 17.4252 14.0569 17.0335 13.6652C16.6419 13.2735 16.446 12.8027 16.446 12.2527C16.446 11.7027 16.6419 11.2319 17.0335 10.8402C17.4252 10.4485 17.896 10.2527 18.446 10.2527C18.996 10.2527 19.4669 10.4485 19.8585 10.8402C20.2502 11.2319 20.446 11.7027 20.446 12.2527C20.446 12.8027 20.2502 13.2735 19.8585 13.6652C19.4669 14.0569 18.996 14.2527 18.446 14.2527Z" fill="#121212"/>
        </g>
    </symbol>
    <symbol id="page_first" width="24" height="24" viewBox="0 0 24 24" fill="none" xmlns="http://www.w3.org/2000/svg">
        <mask id="mask0_734_7326__page_first" style="mask-type:alpha" maskUnits="userSpaceOnUse" x="0" y="0" width="24" height="24">
            <rect width="24" height="24" fill="#D9D9D9"/>
        </mask>
        <g mask="url(#mask0_734_7326__page_first)">
            <path d="M6 18V6H8V18H6ZM17 18L11 12L17 6L18.4 7.4L13.8 12L18.4 16.6L17 18Z" fill="#121212"/>
        </g>
    </symbol>
    <symbol id="page_last" width="24" height="24" viewBox="0 0 24 24" fill="none" xmlns="http://www.w3.org/2000/svg">
        <mask id="mask0_734_7327__page_last" style="mask-type:alpha" maskUnits="userSpaceOnUse" x="0" y="0" width="24" height="24">
            <rect width="24" height="24" fill="#D9D9D9"/>
        </mask>
        <g mask="url(#mask0_734_7327__page_last)">
            <path d="M6.99998 18L5.59998 16.6L10.2 12L5.59998 7.4L6.99998 6L13 12L6.99998 18ZM16 18V6H18V18H16Z" fill="#121212"/>
        </g>
    </symbol>
    <symbol id="radio_off" width="24" height="24" viewBox="0 0 24 24" fill="none" xmlns="http://www.w3.org/2000/svg">
        <mask id="mask0_734_7334__radio_off" style="mask-type:alpha" maskUnits="userSpaceOnUse" x="0" y="0" width="24" height="24">
            <rect width="24" height="24" fill="#D9D9D9"/>
        </mask>
        <g mask="url(#mask0_734_7334__radio_off)">
            <path d="M12 22C10.6167 22 9.31667 21.7375 8.1 21.2125C6.88333 20.6875 5.825 19.975 4.925 19.075C4.025 18.175 3.3125 17.1167 2.7875 15.9C2.2625 14.6833 2 13.3833 2 12C2 10.6167 2.2625 9.31667 2.7875 8.1C3.3125 6.88333 4.025 5.825 4.925 4.925C5.825 4.025 6.88333 3.3125 8.1 2.7875C9.31667 2.2625 10.6167 2 12 2C13.3833 2 14.6833 2.2625 15.9 2.7875C17.1167 3.3125 18.175 4.025 19.075 4.925C19.975 5.825 20.6875 6.88333 21.2125 8.1C21.7375 9.31667 22 10.6167 22 12C22 13.3833 21.7375 14.6833 21.2125 15.9C20.6875 17.1167 19.975 18.175 19.075 19.075C18.175 19.975 17.1167 20.6875 15.9 21.2125C14.6833 21.7375 13.3833 22 12 22ZM12 20C14.2333 20 16.125 19.225 17.675 17.675C19.225 16.125 20 14.2333 20 12C20 9.76667 19.225 7.875 17.675 6.325C16.125 4.775 14.2333 4 12 4C9.76667 4 7.875 4.775 6.325 6.325C4.775 7.875 4 9.76667 4 12C4 14.2333 4.775 16.125 6.325 17.675C7.875 19.225 9.76667 20 12 20Z" fill="#121212"/>
        </g>
    </symbol>
    <symbol id="radio_on" width="24" height="24" viewBox="0 0 24 24" fill="none" xmlns="http://www.w3.org/2000/svg">
        <mask id="mask0_734_7335__radio_on" style="mask-type:alpha" maskUnits="userSpaceOnUse" x="0" y="0" width="24" height="24">
            <rect width="24" height="24" fill="#D9D9D9"/>
        </mask>
        <g mask="url(#mask0_734_7335__radio_on)">
            <path d="M12 17C13.3833 17 14.5625 16.5125 15.5375 15.5375C16.5125 14.5625 17 13.3833 17 12C17 10.6167 16.5125 9.4375 15.5375 8.4625C14.5625 7.4875 13.3833 7 12 7C10.6167 7 9.4375 7.4875 8.4625 8.4625C7.4875 9.4375 7 10.6167 7 12C7 13.3833 7.4875 14.5625 8.4625 15.5375C9.4375 16.5125 10.6167 17 12 17ZM12 22C10.6167 22 9.31667 21.7375 8.1 21.2125C6.88333 20.6875 5.825 19.975 4.925 19.075C4.025 18.175 3.3125 17.1167 2.7875 15.9C2.2625 14.6833 2 13.3833 2 12C2 10.6167 2.2625 9.31667 2.7875 8.1C3.3125 6.88333 4.025 5.825 4.925 4.925C5.825 4.025 6.88333 3.3125 8.1 2.7875C9.31667 2.2625 10.6167 2 12 2C13.3833 2 14.6833 2.2625 15.9 2.7875C17.1167 3.3125 18.175 4.025 19.075 4.925C19.975 5.825 20.6875 6.88333 21.2125 8.1C21.7375 9.31667 22 10.6167 22 12C22 13.3833 21.7375 14.6833 21.2125 15.9C20.6875 17.1167 19.975 18.175 19.075 19.075C18.175 19.975 17.1167 20.6875 15.9 21.2125C14.6833 21.7375 13.3833 22 12 22ZM12 20C14.2333 20 16.125 19.225 17.675 17.675C19.225 16.125 20 14.2333 20 12C20 9.76667 19.225 7.875 17.675 6.325C16.125 4.775 14.2333 4 12 4C9.76667 4 7.875 4.775 6.325 6.325C4.775 7.875 4 9.76667 4 12C4 14.2333 4.775 16.125 6.325 17.675C7.875 19.225 9.76667 20 12 20Z" fill="#121212"/>
        </g>
    </symbol>
    <symbol id="replay" width="24" height="24" viewBox="0 0 24 24" fill="none" xmlns="http://www.w3.org/2000/svg">
        <mask id="mask0_734_7321__replay" style="mask-type:alpha" maskUnits="userSpaceOnUse" x="0" y="0" width="24" height="24">
            <rect width="24" height="24" fill="#D9D9D9"/>
        </mask>
        <g mask="url(#mask0_734_7321__replay)">
            <path d="M12 22C10.75 22 9.57917 21.7625 8.4875 21.2875C7.39583 20.8125 6.44583 20.1708 5.6375 19.3625C4.82917 18.5542 4.1875 17.6042 3.7125 16.5125C3.2375 15.4208 3 14.25 3 13H5C5 14.95 5.67917 16.6042 7.0375 17.9625C8.39583 19.3208 10.05 20 12 20C13.95 20 15.6042 19.3208 16.9625 17.9625C18.3208 16.6042 19 14.95 19 13C19 11.05 18.3208 9.39583 16.9625 8.0375C15.6042 6.67917 13.95 6 12 6H11.85L13.4 7.55L12 9L8 5L12 1L13.4 2.45L11.85 4H12C13.25 4 14.4208 4.2375 15.5125 4.7125C16.6042 5.1875 17.5542 5.82917 18.3625 6.6375C19.1708 7.44583 19.8125 8.39583 20.2875 9.4875C20.7625 10.5792 21 11.75 21 13C21 14.25 20.7625 15.4208 20.2875 16.5125C19.8125 17.6042 19.1708 18.5542 18.3625 19.3625C17.5542 20.1708 16.6042 20.8125 15.5125 21.2875C14.4208 21.7625 13.25 22 12 22Z" fill="#121212"/>
        </g>
    </symbol>
    <symbol id="review" width="24" height="24" viewBox="0 0 24 24" fill="none" xmlns="http://www.w3.org/2000/svg">
        <mask id="mask0_734_7348__review" style="mask-type:alpha" maskUnits="userSpaceOnUse" x="0" y="0" width="24" height="24">
            <rect width="24" height="24" fill="#D9D9D9"/>
        </mask>
        <g mask="url(#mask0_734_7348__review)">
            <path d="M12 22L9.325 18H4C3.45 18 2.97917 17.8042 2.5875 17.4125C2.19583 17.0208 2 16.55 2 16V4C2 3.45 2.19583 2.97917 2.5875 2.5875C2.97917 2.19583 3.45 2 4 2H20C20.55 2 21.0208 2.19583 21.4125 2.5875C21.8042 2.97917 22 3.45 22 4V16C22 16.55 21.8042 17.0208 21.4125 17.4125C21.0208 17.8042 20.55 18 20 18H14.675L12 22ZM12 18.4L13.6 16H20V4H4V16H10.4L12 18.4Z" fill="#121212"/>
        </g>
    </symbol>
    <symbol id="search" width="24" height="24" viewBox="0 0 24 24" fill="none" xmlns="http://www.w3.org/2000/svg">
        <mask id="mask0_734_7320__search" style="mask-type:alpha" maskUnits="userSpaceOnUse" x="0" y="0" width="24" height="24">
            <rect width="24" height="24" fill="#D9D9D9"/>
        </mask>
        <g mask="url(#mask0_734_7320__search)">
            <path d="M19.6 21L13.3 14.7C12.8 15.1 12.225 15.4167 11.575 15.65C10.925 15.8833 10.2333 16 9.5 16C7.68333 16 6.14583 15.3708 4.8875 14.1125C3.62917 12.8542 3 11.3167 3 9.5C3 7.68333 3.62917 6.14583 4.8875 4.8875C6.14583 3.62917 7.68333 3 9.5 3C11.3167 3 12.8542 3.62917 14.1125 4.8875C15.3708 6.14583 16 7.68333 16 9.5C16 10.2333 15.8833 10.925 15.65 11.575C15.4167 12.225 15.1 12.8 14.7 13.3L21 19.6L19.6 21ZM9.5 14C10.75 14 11.8125 13.5625 12.6875 12.6875C13.5625 11.8125 14 10.75 14 9.5C14 8.25 13.5625 7.1875 12.6875 6.3125C11.8125 5.4375 10.75 5 9.5 5C8.25 5 7.1875 5.4375 6.3125 6.3125C5.4375 7.1875 5 8.25 5 9.5C5 10.75 5.4375 11.8125 6.3125 12.6875C7.1875 13.5625 8.25 14 9.5 14Z" fill="#121212"/>
        </g>
    </symbol>
    <symbol id="share" width="24" height="24" viewBox="0 0 24 24" fill="none" xmlns="http://www.w3.org/2000/svg">
        <mask id="mask0_734_7345__share" style="mask-type:alpha" maskUnits="userSpaceOnUse" x="-1" y="-1" width="25" height="25">
            <rect x="-0.00408936" y="-0.0667114" width="24" height="24" fill="#D9D9D9"/>
        </mask>
        <g mask="url(#mask0_734_7345__share)">
            <path d="M16.9959 21.9333C16.1626 21.9333 15.4542 21.6416 14.8709 21.0583C14.2876 20.475 13.9959 19.7666 13.9959 18.9333C13.9959 18.8333 14.0209 18.6 14.0709 18.2333L7.04591 14.1333C6.77924 14.3833 6.47091 14.5791 6.12091 14.7208C5.77091 14.8625 5.39591 14.9333 4.99591 14.9333C4.16258 14.9333 3.45424 14.6416 2.87091 14.0583C2.28758 13.475 1.99591 12.7666 1.99591 11.9333C1.99591 11.1 2.28758 10.3916 2.87091 9.80829C3.45424 9.22496 4.16258 8.93329 4.99591 8.93329C5.39591 8.93329 5.77091 9.00412 6.12091 9.14579C6.47091 9.28746 6.77924 9.48329 7.04591 9.73329L14.0709 5.63329C14.0376 5.51662 14.0167 5.40412 14.0084 5.29579C14.0001 5.18746 13.9959 5.06662 13.9959 4.93329C13.9959 4.09996 14.2876 3.39162 14.8709 2.80829C15.4542 2.22496 16.1626 1.93329 16.9959 1.93329C17.8292 1.93329 18.5376 2.22496 19.1209 2.80829C19.7042 3.39162 19.9959 4.09996 19.9959 4.93329C19.9959 5.76662 19.7042 6.47496 19.1209 7.05829C18.5376 7.64162 17.8292 7.93329 16.9959 7.93329C16.5959 7.93329 16.2209 7.86246 15.8709 7.72079C15.5209 7.57912 15.2126 7.38329 14.9459 7.13329L7.92091 11.2333C7.95424 11.35 7.97508 11.4625 7.98341 11.5708C7.99174 11.6791 7.99591 11.8 7.99591 11.9333C7.99591 12.0666 7.99174 12.1875 7.98341 12.2958C7.97508 12.4041 7.95424 12.5166 7.92091 12.6333L14.9459 16.7333C15.2126 16.4833 15.5209 16.2875 15.8709 16.1458C16.2209 16.0041 16.5959 15.9333 16.9959 15.9333C17.8292 15.9333 18.5376 16.225 19.1209 16.8083C19.7042 17.3916 19.9959 18.1 19.9959 18.9333C19.9959 19.7666 19.7042 20.475 19.1209 21.0583C18.5376 21.6416 17.8292 21.9333 16.9959 21.9333ZM16.9959 19.9333C17.2792 19.9333 17.5167 19.8375 17.7084 19.6458C17.9001 19.4541 17.9959 19.2166 17.9959 18.9333C17.9959 18.65 17.9001 18.4125 17.7084 18.2208C17.5167 18.0291 17.2792 17.9333 16.9959 17.9333C16.7126 17.9333 16.4751 18.0291 16.2834 18.2208C16.0917 18.4125 15.9959 18.65 15.9959 18.9333C15.9959 19.2166 16.0917 19.4541 16.2834 19.6458C16.4751 19.8375 16.7126 19.9333 16.9959 19.9333ZM4.99591 12.9333C5.27924 12.9333 5.51674 12.8375 5.70841 12.6458C5.90008 12.4541 5.99591 12.2166 5.99591 11.9333C5.99591 11.65 5.90008 11.4125 5.70841 11.2208C5.51674 11.0291 5.27924 10.9333 4.99591 10.9333C4.71258 10.9333 4.47508 11.0291 4.28341 11.2208C4.09174 11.4125 3.99591 11.65 3.99591 11.9333C3.99591 12.2166 4.09174 12.4541 4.28341 12.6458C4.47508 12.8375 4.71258 12.9333 4.99591 12.9333ZM16.9959 5.93329C17.2792 5.93329 17.5167 5.83746 17.7084 5.64579C17.9001 5.45412 17.9959 5.21662 17.9959 4.93329C17.9959 4.64996 17.9001 4.41246 17.7084 4.22079C17.5167 4.02912 17.2792 3.93329 16.9959 3.93329C16.7126 3.93329 16.4751 4.02912 16.2834 4.22079C16.0917 4.41246 15.9959 4.64996 15.9959 4.93329C15.9959 5.21662 16.0917 5.45412 16.2834 5.64579C16.4751 5.83746 16.7126 5.93329 16.9959 5.93329Z" fill="#121212"/>
        </g>
    </symbol>
    <symbol id="time" width="24" height="24" viewBox="0 0 24 24" fill="none" xmlns="http://www.w3.org/2000/svg">
        <mask id="mask0_734_7343__time" style="mask-type:alpha" maskUnits="userSpaceOnUse" x="0" y="0" width="24" height="24">
            <rect width="24" height="24" fill="#D9D9D9"/>
        </mask>
        <g mask="url(#mask0_734_7343__time)">
            <path d="M15.3 16.7L16.7 15.3L13 11.6V7H11V12.4L15.3 16.7ZM12 22C10.6167 22 9.31667 21.7375 8.1 21.2125C6.88333 20.6875 5.825 19.975 4.925 19.075C4.025 18.175 3.3125 17.1167 2.7875 15.9C2.2625 14.6833 2 13.3833 2 12C2 10.6167 2.2625 9.31667 2.7875 8.1C3.3125 6.88333 4.025 5.825 4.925 4.925C5.825 4.025 6.88333 3.3125 8.1 2.7875C9.31667 2.2625 10.6167 2 12 2C13.3833 2 14.6833 2.2625 15.9 2.7875C17.1167 3.3125 18.175 4.025 19.075 4.925C19.975 5.825 20.6875 6.88333 21.2125 8.1C21.7375 9.31667 22 10.6167 22 12C22 13.3833 21.7375 14.6833 21.2125 15.9C20.6875 17.1167 19.975 18.175 19.075 19.075C18.175 19.975 17.1167 20.6875 15.9 21.2125C14.6833 21.7375 13.3833 22 12 22ZM12 20C14.2167 20 16.1042 19.2208 17.6625 17.6625C19.2208 16.1042 20 14.2167 20 12C20 9.78333 19.2208 7.89583 17.6625 6.3375C16.1042 4.77917 14.2167 4 12 4C9.78333 4 7.89583 4.77917 6.3375 6.3375C4.77917 7.89583 4 9.78333 4 12C4 14.2167 4.77917 16.1042 6.3375 17.6625C7.89583 19.2208 9.78333 20 12 20Z" fill="#121212"/>
        </g>
    </symbol>
    <symbol id="visibillity_off" width="24" height="24" viewBox="0 0 24 24" fill="none" xmlns="http://www.w3.org/2000/svg">
        <mask id="mask0_734_7338__visibillity_off" style="mask-type:alpha" maskUnits="userSpaceOnUse" x="0" y="0" width="24" height="24">
            <rect width="24" height="24" fill="#D9D9D9"/>
        </mask>
        <g mask="url(#mask0_734_7338__visibillity_off)">
            <path d="M4 13C3.16667 13 2.45833 12.7083 1.875 12.125C1.29167 11.5417 1 10.8333 1 10C1 9.16667 1.29167 8.45833 1.875 7.875C2.45833 7.29167 3.16667 7 4 7C4.83333 7 5.54167 7.29167 6.125 7.875C6.70833 8.45833 7 9.16667 7 10C7 10.8333 6.70833 11.5417 6.125 12.125C5.54167 12.7083 4.83333 13 4 13ZM2 19V17H22V19H2ZM12 13C11.1667 13 10.4583 12.7083 9.875 12.125C9.29167 11.5417 9 10.8333 9 10C9 9.16667 9.29167 8.45833 9.875 7.875C10.4583 7.29167 11.1667 7 12 7C12.8333 7 13.5417 7.29167 14.125 7.875C14.7083 8.45833 15 9.16667 15 10C15 10.8333 14.7083 11.5417 14.125 12.125C13.5417 12.7083 12.8333 13 12 13ZM20 13C19.1667 13 18.4583 12.7083 17.875 12.125C17.2917 11.5417 17 10.8333 17 10C17 9.16667 17.2917 8.45833 17.875 7.875C18.4583 7.29167 19.1667 7 20 7C20.8333 7 21.5417 7.29167 22.125 7.875C22.7083 8.45833 23 9.16667 23 10C23 10.8333 22.7083 11.5417 22.125 12.125C21.5417 12.7083 20.8333 13 20 13Z" fill="#121212"/>
        </g>
    </symbol>
    <symbol id="visibillity_on" width="24" height="24" viewBox="0 0 24 24" fill="none" xmlns="http://www.w3.org/2000/svg">
        <mask id="mask0_734_7339__visibillity_on" style="mask-type:alpha" maskUnits="userSpaceOnUse" x="0" y="0" width="24" height="24">
            <rect width="24" height="24" fill="#D9D9D9"/>
        </mask>
        <g mask="url(#mask0_734_7339__visibillity_on)">
            <path d="M4 13C3.16667 13 2.45833 12.7083 1.875 12.125C1.29167 11.5417 1 10.8333 1 9.99999C1 9.16666 1.29167 8.45832 1.875 7.87499C2.45833 7.29165 3.16667 6.99999 4 6.99999C4.83333 6.99999 5.54167 7.29165 6.125 7.87499C6.70833 8.45832 7 9.16666 7 9.99999C7 10.8333 6.70833 11.5417 6.125 12.125C5.54167 12.7083 4.83333 13 4 13ZM20 13C19.1667 13 18.4583 12.7083 17.875 12.125C17.2917 11.5417 17 10.8333 17 9.99999C17 9.16666 17.2917 8.45832 17.875 7.87499C18.4583 7.29165 19.1667 6.99999 20 6.99999C20.8333 6.99999 21.5417 7.29165 22.125 7.87499C22.7083 8.45832 23 9.16666 23 9.99999C23 10.8333 22.7083 11.5417 22.125 12.125C21.5417 12.7083 20.8333 13 20 13ZM14.5 11.65L10.35 7.49999C10.5833 7.33332 10.8417 7.20832 11.125 7.12499C11.4083 7.04165 11.7 6.99999 12 6.99999C12.8333 6.99999 13.5417 7.29165 14.125 7.87499C14.7083 8.45832 15 9.16666 15 9.99999C15 10.3 14.9583 10.5917 14.875 10.875C14.7917 11.1583 14.6667 11.4167 14.5 11.65ZM19.8 22.6L16.2 19H2V17H14.2L1.4 4.19999L2.8 2.79999L21.2 21.2L19.8 22.6Z" fill="#121212"/>
        </g>
    </symbol>
</svg>