<svg width="24" height="24" viewBox="0 0 24 24" fill="none" xmlns="http://www.w3.org/2000/svg">
<path fill-rule="evenodd" clip-rule="evenodd" d="M12 22.7997L12.8496 23.6469C12.7381 23.7588 12.6056 23.8476 12.4597 23.9082C12.3138 23.9688 12.1574 24 11.9994 24C11.8414 24 11.685 23.9688 11.5391 23.9082C11.3932 23.8476 11.2607 23.7588 11.1492 23.6469L11.142 23.6385L11.1216 23.6181L11.0472 23.5425C10.6243 23.1067 10.2082 22.6642 9.79924 22.2153C8.77292 21.0899 7.78982 19.9259 6.85208 18.7257C5.7817 17.3457 4.68731 15.7858 3.85573 14.245C3.04214 12.7342 2.40015 11.0974 2.40015 9.59986C2.40015 4.15314 6.71048 0 12 0C17.2895 0 21.5999 4.15314 21.5999 9.59986C21.5999 11.0974 20.9579 12.7342 20.1443 14.2438C19.3127 15.787 18.2195 17.3457 17.1479 18.7257C15.8361 20.4047 14.4357 22.0125 12.9528 23.5425L12.8784 23.6181L12.858 23.6385L12.8508 23.6457L12 22.7997ZM12 13.1998C12.9548 13.1998 13.8704 12.8205 14.5456 12.1454C15.2207 11.4703 15.6 10.5546 15.6 9.59986C15.6 8.6451 15.2207 7.72943 14.5456 7.05431C13.8704 6.37919 12.9548 5.99991 12 5.99991C11.0452 5.99991 10.1296 6.37919 9.45446 7.05431C8.77934 7.72943 8.40006 8.6451 8.40006 9.59986C8.40006 10.5546 8.77934 11.4703 9.45446 12.1454C10.1296 12.8205 11.0452 13.1998 12 13.1998Z" fill="#E66A47"/>
<circle cx="12" cy="9.67967" r="6.40233" fill="white"/>
<mask id="mask0_1397_6835" style="mask-type:alpha" maskUnits="userSpaceOnUse" x="8" y="5" width="8" height="9">
<rect x="8" y="5.67969" width="8" height="8" fill="#D9D9D9"/>
</mask>
<g mask="url(#mask0_1397_6835)">
<path d="M12 12.6797L11.5167 12.2463C10.9555 11.7408 10.4917 11.3047 10.125 10.938C9.75832 10.5713 9.46666 10.2422 9.24999 9.95049C9.03332 9.65882 8.88193 9.39077 8.79582 9.14632C8.70971 8.90188 8.66666 8.65188 8.66666 8.39632C8.66666 7.8741 8.84166 7.43799 9.19166 7.08799C9.54166 6.73799 9.97777 6.56299 10.5 6.56299C10.7889 6.56299 11.0639 6.6241 11.325 6.74632C11.5861 6.86854 11.8111 7.04077 12 7.26299C12.1889 7.04077 12.4139 6.86854 12.675 6.74632C12.9361 6.6241 13.2111 6.56299 13.5 6.56299C14.0222 6.56299 14.4583 6.73799 14.8083 7.08799C15.1583 7.43799 15.3333 7.8741 15.3333 8.39632C15.3333 8.65188 15.2903 8.90188 15.2042 9.14632C15.118 9.39077 14.9667 9.65882 14.75 9.95049C14.5333 10.2422 14.2417 10.5713 13.875 10.938C13.5083 11.3047 13.0444 11.7408 12.4833 12.2463L12 12.6797Z" fill="#E66A47"/>
</g>
</svg>
