<svg width="24" height="24" viewBox="0 0 24 24" fill="none" xmlns="http://www.w3.org/2000/svg">
<g clip-path="url(#clip0_1570_6919)">
<rect x="0.5" y="0.5" width="23" height="23" rx="11.5" fill="#E66A47"/>
<rect x="0.5" y="0.5" width="23" height="23" rx="11.5" stroke="white"/>
<mask id="mask0_1570_6919" style="mask-type:alpha" maskUnits="userSpaceOnUse" x="5" y="5" width="14" height="14">
<rect x="5" y="5" width="14" height="14" fill="#D9D9D9"/>
</mask>
<g mask="url(#mask0_1570_6919)">
<path d="M10.5417 17.8334C9.81251 17.8334 9.19271 17.5782 8.6823 17.0678C8.17188 16.5574 7.91667 15.9376 7.91667 15.2084C7.91667 14.8681 7.99931 14.5546 8.16459 14.2678C8.32987 13.981 8.63612 13.614 9.08334 13.1667C9.14167 13.1084 9.19757 13.0477 9.25105 12.9845C9.30452 12.9213 9.37501 12.8362 9.46251 12.7292C8.96667 11.9709 8.58507 11.1761 8.31771 10.3449C8.05035 9.51362 7.91667 8.70425 7.91667 7.91675C7.91667 7.35286 8.01876 6.92022 8.22292 6.61883C8.42709 6.31744 8.71389 6.16675 9.08334 6.16675C9.63751 6.16675 10.1333 6.43411 10.5708 6.96883C11.0083 7.50355 11.3389 7.99453 11.5625 8.44175C11.65 8.63619 11.7302 8.83307 11.8031 9.03237C11.876 9.23168 11.9417 9.43828 12 9.65216C12.0583 9.43828 12.124 9.23168 12.1969 9.03237C12.2698 8.83307 12.3549 8.63619 12.4521 8.44175C12.666 7.99453 12.9917 7.50355 13.4292 6.96883C13.8667 6.43411 14.3625 6.16675 14.9167 6.16675C15.2861 6.16675 15.5729 6.31744 15.7771 6.61883C15.9813 6.92022 16.0833 7.35286 16.0833 7.91675C16.0833 8.70425 15.9497 9.51362 15.6823 10.3449C15.4149 11.1761 15.0333 11.9709 14.5375 12.7292C14.625 12.8362 14.6955 12.9213 14.749 12.9845C14.8024 13.0477 14.8583 13.1084 14.9167 13.1667C15.3639 13.614 15.6701 13.981 15.8354 14.2678C16.0007 14.5546 16.0833 14.8681 16.0833 15.2084C16.0833 15.9376 15.8281 16.5574 15.3177 17.0678C14.8073 17.5782 14.1875 17.8334 13.4583 17.8334C13.0208 17.8334 12.6684 17.7848 12.401 17.6876L12 17.5417L11.599 17.6876C11.3316 17.7848 10.9792 17.8334 10.5417 17.8334ZM10.5417 16.6667C10.7653 16.6667 10.9889 16.64 11.2125 16.5865C11.4361 16.5331 11.6451 16.4529 11.8396 16.3459C11.7326 16.2973 11.6354 16.2147 11.5479 16.098C11.4604 15.9813 11.4167 15.8792 11.4167 15.7917C11.4167 15.714 11.4726 15.6459 11.5844 15.5876C11.6962 15.5292 11.8347 15.5001 12 15.5001C12.1653 15.5001 12.3038 15.5292 12.4156 15.5876C12.5274 15.6459 12.5833 15.714 12.5833 15.7917C12.5833 15.8792 12.5396 15.9813 12.4521 16.098C12.3646 16.2147 12.2674 16.2973 12.1604 16.3459C12.3549 16.4529 12.5639 16.5331 12.7875 16.5865C13.0111 16.64 13.2347 16.6667 13.4583 16.6667C13.8667 16.6667 14.2118 16.5258 14.4938 16.2438C14.7757 15.9619 14.9167 15.6167 14.9167 15.2084C14.9167 15.0334 14.8681 14.8633 14.7708 14.698C14.6736 14.5327 14.5278 14.3674 14.3333 14.2022C14.1972 14.0855 14.0854 13.9834 13.9979 13.8959C13.9104 13.8084 13.7694 13.6431 13.575 13.4001C13.2931 13.0598 13.0597 12.8386 12.875 12.7365C12.6903 12.6345 12.3986 12.5834 12 12.5834C11.6014 12.5834 11.3073 12.6345 11.1177 12.7365C10.9281 12.8386 10.6972 13.0598 10.425 13.4001C10.2306 13.6431 10.0896 13.8084 10.0021 13.8959C9.91459 13.9834 9.80278 14.0855 9.66667 14.2022C9.47223 14.3674 9.32639 14.5327 9.22917 14.698C9.13195 14.8633 9.08334 15.0334 9.08334 15.2084C9.08334 15.6167 9.22431 15.9619 9.50626 16.2438C9.7882 16.5258 10.1333 16.6667 10.5417 16.6667ZM11.125 14.7709C11.0472 14.7709 10.9792 14.7272 10.9208 14.6397C10.8625 14.5522 10.8333 14.4501 10.8333 14.3334C10.8333 14.2167 10.8625 14.1147 10.9208 14.0272C10.9792 13.9397 11.0472 13.8959 11.125 13.8959C11.2028 13.8959 11.2708 13.9397 11.3292 14.0272C11.3875 14.1147 11.4167 14.2167 11.4167 14.3334C11.4167 14.4501 11.3875 14.5522 11.3292 14.6397C11.2708 14.7272 11.2028 14.7709 11.125 14.7709ZM12.875 14.7709C12.7972 14.7709 12.7292 14.7272 12.6708 14.6397C12.6125 14.5522 12.5833 14.4501 12.5833 14.3334C12.5833 14.2167 12.6125 14.1147 12.6708 14.0272C12.7292 13.9397 12.7972 13.8959 12.875 13.8959C12.9528 13.8959 13.0208 13.9397 13.0792 14.0272C13.1375 14.1147 13.1667 14.2167 13.1667 14.3334C13.1667 14.4501 13.1375 14.5522 13.0792 14.6397C13.0208 14.7272 12.9528 14.7709 12.875 14.7709ZM10.2938 11.8688C10.4007 11.7911 10.5222 11.723 10.6583 11.6647C10.7944 11.6063 10.9451 11.5529 11.1104 11.5042C11.091 11.0376 11.0205 10.5733 10.899 10.1115C10.7774 9.64973 10.6243 9.22925 10.4396 8.85008C10.2549 8.46119 10.0507 8.13307 9.82709 7.86571C9.60348 7.59835 9.37987 7.42578 9.15626 7.348C9.13681 7.40633 9.1198 7.48168 9.10521 7.57404C9.09063 7.6664 9.08334 7.78064 9.08334 7.91675C9.08334 8.57786 9.18785 9.24869 9.39688 9.92925C9.60591 10.6098 9.90487 11.2563 10.2938 11.8688ZM13.7063 11.8688C14.0951 11.2563 14.3941 10.6098 14.6031 9.92925C14.8122 9.24869 14.9167 8.57786 14.9167 7.91675C14.9167 7.78064 14.9094 7.6664 14.8948 7.57404C14.8802 7.48168 14.8632 7.40633 14.8438 7.348C14.6201 7.42578 14.3965 7.59835 14.1729 7.86571C13.9493 8.13307 13.7451 8.46119 13.5604 8.85008C13.3854 9.22925 13.2372 9.64973 13.1156 10.1115C12.9941 10.5733 12.9188 11.0376 12.8896 11.5042C13.0354 11.5431 13.1764 11.5942 13.3125 11.6574C13.4486 11.7206 13.5799 11.7911 13.7063 11.8688Z" fill="white"/>
</g>
</g>
<defs>
<clipPath id="clip0_1570_6919">
<rect width="24" height="24" fill="white"/>
</clipPath>
</defs>
</svg>
