<svg width="24" height="24" viewBox="0 0 24 24" fill="none" xmlns="http://www.w3.org/2000/svg">
<g clip-path="url(#clip0_1570_6989)">
<rect x="0.5" y="0.5" width="23" height="23" rx="11.5" fill="#469AFF"/>
<rect x="0.5" y="0.5" width="23" height="23" rx="11.5" stroke="white"/>
<mask id="mask0_1570_6989" style="mask-type:alpha" maskUnits="userSpaceOnUse" x="5" y="5" width="14" height="14">
<rect x="5" y="5" width="14" height="14" fill="white"/>
</mask>
<g mask="url(#mask0_1570_6989)">
<path d="M16.0833 9.37508C16.2486 9.37508 16.3872 9.31918 16.499 9.20737C16.6108 9.09557 16.6667 8.95703 16.6667 8.79175C16.6667 8.62647 16.6108 8.48793 16.499 8.37612C16.3872 8.26432 16.2486 8.20841 16.0833 8.20841C15.9181 8.20841 15.7795 8.26432 15.6677 8.37612C15.5559 8.48793 15.5 8.62647 15.5 8.79175C15.5 8.95703 15.5559 9.09557 15.6677 9.20737C15.7795 9.31918 15.9181 9.37508 16.0833 9.37508ZM13.75 9.37508C13.9153 9.37508 14.0538 9.31918 14.1656 9.20737C14.2774 9.09557 14.3333 8.95703 14.3333 8.79175C14.3333 8.62647 14.2774 8.48793 14.1656 8.37612C14.0538 8.26432 13.9153 8.20841 13.75 8.20841C13.5847 8.20841 13.4462 8.26432 13.3344 8.37612C13.2226 8.48793 13.1667 8.62647 13.1667 8.79175C13.1667 8.95703 13.2226 9.09557 13.3344 9.20737C13.4462 9.31918 13.5847 9.37508 13.75 9.37508ZM13.4583 11.3584H16.375C16.375 11.0181 16.2267 10.7483 15.9302 10.549C15.6337 10.3497 15.2958 10.2501 14.9167 10.2501C14.5375 10.2501 14.1997 10.3497 13.9031 10.549C13.6066 10.7483 13.4583 11.0181 13.4583 11.3584ZM9.08334 17.8334C8.11112 17.8334 7.28473 17.4931 6.60418 16.8126C5.92362 16.132 5.58334 15.3056 5.58334 14.3334V10.2501H12.5833V14.3334C12.5833 15.3056 12.2431 16.132 11.5625 16.8126C10.882 17.4931 10.0556 17.8334 9.08334 17.8334ZM9.08334 16.6667C9.72501 16.6667 10.2743 16.4383 10.7313 15.9813C11.1882 15.5244 11.4167 14.9751 11.4167 14.3334V11.4167H6.75001V14.3334C6.75001 14.9751 6.97848 15.5244 7.43543 15.9813C7.89237 16.4383 8.44168 16.6667 9.08334 16.6667ZM14.9167 13.7501C14.6639 13.7501 14.4136 13.7233 14.1656 13.6699C13.9177 13.6164 13.682 13.5362 13.4583 13.4292V12.0584C13.6722 12.2237 13.9031 12.3525 14.1511 12.4449C14.399 12.5372 14.6542 12.5834 14.9167 12.5834C15.5583 12.5834 16.1076 12.3549 16.5646 11.898C17.0215 11.4411 17.25 10.8917 17.25 10.2501V7.33341H12.5833V9.37508H11.4167V6.16675H18.4167V10.2501C18.4167 11.2223 18.0764 12.0487 17.3958 12.7292C16.7153 13.4098 15.8889 13.7501 14.9167 13.7501ZM7.91668 13.4584C8.08195 13.4584 8.2205 13.4025 8.3323 13.2907C8.44411 13.1789 8.50001 13.0404 8.50001 12.8751C8.50001 12.7098 8.44411 12.5713 8.3323 12.4595C8.2205 12.3477 8.08195 12.2917 7.91668 12.2917C7.7514 12.2917 7.61286 12.3477 7.50105 12.4595C7.38925 12.5713 7.33334 12.7098 7.33334 12.8751C7.33334 13.0404 7.38925 13.1789 7.50105 13.2907C7.61286 13.4025 7.7514 13.4584 7.91668 13.4584ZM10.25 13.4584C10.4153 13.4584 10.5538 13.4025 10.6656 13.2907C10.7774 13.1789 10.8333 13.0404 10.8333 12.8751C10.8333 12.7098 10.7774 12.5713 10.6656 12.4595C10.5538 12.3477 10.4153 12.2917 10.25 12.2917C10.0847 12.2917 9.94619 12.3477 9.83439 12.4595C9.72258 12.5713 9.66668 12.7098 9.66668 12.8751C9.66668 13.0404 9.72258 13.1789 9.83439 13.2907C9.94619 13.4025 10.0847 13.4584 10.25 13.4584ZM9.08334 15.4417C9.46251 15.4417 9.80036 15.3421 10.0969 15.1428C10.3934 14.9435 10.5417 14.6737 10.5417 14.3334H7.62501C7.62501 14.6737 7.77327 14.9435 8.0698 15.1428C8.36633 15.3421 8.70418 15.4417 9.08334 15.4417Z" fill="white"/>
</g>
</g>
<defs>
<clipPath id="clip0_1570_6989">
<rect width="24" height="24" fill="white"/>
</clipPath>
</defs>
</svg>
