<svg width="24" height="24" viewBox="0 0 24 24" fill="none" xmlns="http://www.w3.org/2000/svg">
<g clip-path="url(#clip0_1570_6994)">
<rect x="0.5" y="0.5" width="23" height="23" rx="11.5" fill="#5BC566"/>
<rect x="0.5" y="0.5" width="23" height="23" rx="11.5" stroke="white"/>
<mask id="mask0_1570_6994" style="mask-type:alpha" maskUnits="userSpaceOnUse" x="5" y="5" width="14" height="14">
<rect x="5" y="5" width="14" height="14" fill="#D9D9D9"/>
</mask>
<g mask="url(#mask0_1570_6994)">
<path d="M6.99792 16.6666L6.16667 15.8499L8.55834 13.4582C8.85973 13.1568 9.06632 12.7801 9.17813 12.328C9.28994 11.8759 9.34584 11.1832 9.34584 10.2499C9.34584 9.68601 9.47223 9.13185 9.72501 8.5874C9.97778 8.04296 10.3375 7.5374 10.8042 7.07073C11.6889 6.18601 12.666 5.68532 13.7354 5.56865C14.8049 5.45198 15.6847 5.74851 16.375 6.45823C17.075 7.15823 17.3667 8.04296 17.25 9.1124C17.1333 10.1818 16.6375 11.1541 15.7625 12.0291C15.2958 12.4957 14.7903 12.8555 14.2458 13.1082C13.7014 13.361 13.1472 13.4874 12.5833 13.4874C11.6403 13.4874 10.95 13.5409 10.5125 13.6478C10.075 13.7548 9.7007 13.9638 9.38959 14.2749L6.99792 16.6666ZM11.0083 11.7957C11.4653 12.243 12.0826 12.4082 12.8604 12.2916C13.6382 12.1749 14.3333 11.8103 14.9458 11.1978C15.5681 10.5756 15.9399 9.87803 16.0615 9.10511C16.183 8.33219 16.0153 7.72698 15.5583 7.28948C15.0917 6.82282 14.4816 6.64782 13.7281 6.76448C12.9747 6.88115 12.282 7.2506 11.65 7.87282C11.0375 8.48532 10.6656 9.17803 10.5344 9.95094C10.4031 10.7239 10.5611 11.3388 11.0083 11.7957ZM15.5 18.4166C14.8583 18.4166 14.309 18.1881 13.8521 17.7312C13.3951 17.2742 13.1667 16.7249 13.1667 16.0832C13.1667 15.4416 13.3951 14.8923 13.8521 14.4353C14.309 13.9784 14.8583 13.7499 15.5 13.7499C16.1417 13.7499 16.691 13.9784 17.1479 14.4353C17.6049 14.8923 17.8333 15.4416 17.8333 16.0832C17.8333 16.7249 17.6049 17.2742 17.1479 17.7312C16.691 18.1881 16.1417 18.4166 15.5 18.4166ZM15.5 17.2499C15.8208 17.2499 16.0955 17.1357 16.324 16.9072C16.5524 16.6787 16.6667 16.4041 16.6667 16.0832C16.6667 15.7624 16.5524 15.4877 16.324 15.2593C16.0955 15.0308 15.8208 14.9166 15.5 14.9166C15.1792 14.9166 14.9045 15.0308 14.676 15.2593C14.4476 15.4877 14.3333 15.7624 14.3333 16.0832C14.3333 16.4041 14.4476 16.6787 14.676 16.9072C14.9045 17.1357 15.1792 17.2499 15.5 17.2499Z" fill="white"/>
</g>
</g>
<defs>
<clipPath id="clip0_1570_6994">
<rect width="24" height="24" fill="white"/>
</clipPath>
</defs>
</svg>
