<svg width="24" height="24" viewBox="0 0 24 24" fill="none" xmlns="http://www.w3.org/2000/svg">
<path fill-rule="evenodd" clip-rule="evenodd" d="M12 22.7997L12.8496 23.6469C12.7381 23.7588 12.6056 23.8476 12.4597 23.9082C12.3138 23.9688 12.1574 24 11.9994 24C11.8414 24 11.685 23.9688 11.5391 23.9082C11.3932 23.8476 11.2607 23.7588 11.1492 23.6469L11.142 23.6385L11.1216 23.6181L11.0472 23.5425C10.6243 23.1067 10.2082 22.6642 9.79924 22.2153C8.77292 21.0899 7.78982 19.9259 6.85208 18.7257C5.7817 17.3457 4.68731 15.7858 3.85573 14.245C3.04214 12.7342 2.40015 11.0974 2.40015 9.59986C2.40015 4.15314 6.71048 0 12 0C17.2895 0 21.5999 4.15314 21.5999 9.59986C21.5999 11.0974 20.9579 12.7342 20.1443 14.2438C19.3127 15.787 18.2195 17.3457 17.1479 18.7257C15.8361 20.4047 14.4357 22.0125 12.9528 23.5425L12.8784 23.6181L12.858 23.6385L12.8508 23.6457L12 22.7997ZM12 13.1998C12.9548 13.1998 13.8704 12.8205 14.5456 12.1454C15.2207 11.4703 15.6 10.5546 15.6 9.59986C15.6 8.6451 15.2207 7.72943 14.5456 7.05431C13.8704 6.37919 12.9548 5.99991 12 5.99991C11.0452 5.99991 10.1296 6.37919 9.45446 7.05431C8.77934 7.72943 8.40006 8.6451 8.40006 9.59986C8.40006 10.5546 8.77934 11.4703 9.45446 12.1454C10.1296 12.8205 11.0452 13.1998 12 13.1998Z" fill="#E66A47"/>
<circle cx="12" cy="9.67967" r="6.40233" fill="white"/>
<mask id="mask0_1397_6828" style="mask-type:alpha" maskUnits="userSpaceOnUse" x="8" y="5" width="8" height="9">
<rect x="8" y="5.67969" width="8" height="8" fill="#D9D9D9"/>
</mask>
<g mask="url(#mask0_1397_6828)">
<path d="M8.66668 13.0129C8.82779 12.6017 8.93473 12.1781 8.98751 11.742C9.04029 11.3059 9.07223 10.8684 9.08334 10.4295C8.86668 10.3462 8.68751 10.2073 8.54584 10.0129C8.40418 9.81841 8.33334 9.59619 8.33334 9.34619V8.67952C8.97223 8.46841 9.62362 8.14619 10.2875 7.71286C10.9514 7.27952 11.5222 6.82397 12 6.34619C12.4778 6.82397 13.0486 7.27952 13.7125 7.71286C14.3764 8.14619 15.0278 8.46841 15.6667 8.67952V9.34619C15.6667 9.59619 15.5958 9.81841 15.4542 10.0129C15.3125 10.2073 15.1333 10.3462 14.9167 10.4295C14.9278 10.8684 14.9597 11.3059 15.0125 11.742C15.0653 12.1781 15.1722 12.6017 15.3333 13.0129H8.66668ZM9.96668 8.67952H14.0333C13.6 8.43508 13.2097 8.18369 12.8625 7.92536C12.5153 7.66702 12.2278 7.44064 12 7.24619C11.7722 7.44064 11.4847 7.66702 11.1375 7.92536C10.7903 8.18369 10.4 8.43508 9.96668 8.67952ZM12.8333 9.84619C12.9722 9.84619 13.0903 9.79758 13.1875 9.70036C13.2847 9.60314 13.3333 9.48508 13.3333 9.34619H12.3333C12.3333 9.48508 12.382 9.60314 12.4792 9.70036C12.5764 9.79758 12.6945 9.84619 12.8333 9.84619ZM11.1667 9.84619C11.3056 9.84619 11.4236 9.79758 11.5208 9.70036C11.6181 9.60314 11.6667 9.48508 11.6667 9.34619H10.6667C10.6667 9.48508 10.7153 9.60314 10.8125 9.70036C10.9097 9.79758 11.0278 9.84619 11.1667 9.84619ZM9.50001 9.84619C9.6389 9.84619 9.75695 9.79758 9.85418 9.70036C9.9514 9.60314 10 9.48508 10 9.34619H9.00001C9.00001 9.48508 9.04862 9.60314 9.14584 9.70036C9.24307 9.79758 9.36112 9.84619 9.50001 9.84619ZM9.55001 12.3462H10.4417C10.4917 12.0129 10.5306 11.6823 10.5583 11.3545C10.5861 11.0267 10.6083 10.6962 10.625 10.3629C10.575 10.3351 10.525 10.3059 10.475 10.2754C10.425 10.2448 10.3778 10.2073 10.3333 10.1629C10.25 10.2462 10.1597 10.3142 10.0625 10.367C9.96529 10.4198 9.86112 10.4601 9.75001 10.4879C9.7389 10.8045 9.71945 11.117 9.69168 11.4254C9.6639 11.7337 9.61668 12.0406 9.55001 12.3462ZM11.1167 12.3462H12.8833C12.8389 12.0406 12.8042 11.7351 12.7792 11.4295C12.7542 11.124 12.7333 10.8156 12.7167 10.5045C12.5722 10.4934 12.4403 10.4587 12.3208 10.4004C12.2014 10.342 12.0945 10.2656 12 10.1712C11.9056 10.2656 11.7958 10.342 11.6708 10.4004C11.5458 10.4587 11.4167 10.4934 11.2833 10.5045C11.2667 10.8156 11.2458 11.124 11.2208 11.4295C11.1958 11.7351 11.1611 12.0406 11.1167 12.3462ZM13.5583 12.3462H14.45C14.3833 12.0406 14.3361 11.7337 14.3083 11.4254C14.2806 11.117 14.2611 10.8045 14.25 10.4879C14.1389 10.4601 14.0333 10.4198 13.9333 10.367C13.8333 10.3142 13.7445 10.2462 13.6667 10.1629C13.6222 10.2073 13.575 10.2448 13.525 10.2754C13.475 10.3059 13.425 10.3351 13.375 10.3629C13.3917 10.6962 13.4153 11.0267 13.4458 11.3545C13.4764 11.6823 13.5139 12.0129 13.5583 12.3462ZM14.5 9.84619C14.6389 9.84619 14.757 9.79758 14.8542 9.70036C14.9514 9.60314 15 9.48508 15 9.34619H14C14 9.48508 14.0486 9.60314 14.1458 9.70036C14.2431 9.79758 14.3611 9.84619 14.5 9.84619Z" fill="#E66A47"/>
</g>
</svg>
