<svg width="24" height="24" viewBox="0 0 24 24" fill="none" xmlns="http://www.w3.org/2000/svg">
<g clip-path="url(#clip0_1570_6964)">
<rect x="0.5" y="0.5" width="23" height="23" rx="11.5" fill="#FF9D14"/>
<rect x="0.5" y="0.5" width="23" height="23" rx="11.5" stroke="white"/>
<mask id="mask0_1570_6964" style="mask-type:alpha" maskUnits="userSpaceOnUse" x="5" y="5" width="14" height="14">
<rect x="5" y="5" width="14" height="14" fill="#D9D9D9"/>
</mask>
<g mask="url(#mask0_1570_6964)">
<path d="M7.55208 17.25L6.73541 16.4333L12.7146 10.4542C12.5396 10.0458 12.5153 9.58403 12.6417 9.06875C12.7681 8.55347 13.0451 8.09167 13.4729 7.68333C13.9882 7.16806 14.5618 6.86667 15.1937 6.77917C15.8257 6.69167 16.341 6.84722 16.7396 7.24583C17.1382 7.64444 17.2937 8.15972 17.2062 8.79167C17.1187 9.42361 16.8174 9.99722 16.3021 10.5125C15.8937 10.9403 15.4319 11.2174 14.9167 11.3438C14.4014 11.4701 13.9396 11.4458 13.5312 11.2708L12.8021 12L17.2354 16.4333L16.4187 17.25L11.9854 12.8458L7.55208 17.25ZM9.27291 12.2625L7.52291 10.5125C6.99791 9.9875 6.73541 9.36042 6.73541 8.63125C6.73541 7.90208 6.99791 7.275 7.52291 6.75L11.1396 10.3958L9.27291 12.2625Z" fill="white"/>
</g>
</g>
<defs>
<clipPath id="clip0_1570_6964">
<rect width="24" height="24" fill="white"/>
</clipPath>
</defs>
</svg>
