<svg width="24" height="24" viewBox="0 0 24 24" fill="none" xmlns="http://www.w3.org/2000/svg">
<path fill-rule="evenodd" clip-rule="evenodd" d="M12 22.7997L12.8496 23.6469C12.7381 23.7588 12.6056 23.8476 12.4597 23.9082C12.3138 23.9688 12.1574 24 11.9994 24C11.8414 24 11.685 23.9688 11.5391 23.9082C11.3932 23.8476 11.2607 23.7588 11.1492 23.6469L11.142 23.6385L11.1216 23.6181L11.0472 23.5425C10.6243 23.1067 10.2082 22.6642 9.79924 22.2153C8.77292 21.0899 7.78982 19.9259 6.85208 18.7257C5.7817 17.3457 4.68731 15.7858 3.85573 14.245C3.04214 12.7342 2.40015 11.0974 2.40015 9.59986C2.40015 4.15314 6.71048 0 12 0C17.2895 0 21.5999 4.15314 21.5999 9.59986C21.5999 11.0974 20.9579 12.7342 20.1443 14.2438C19.3127 15.787 18.2195 17.3457 17.1479 18.7257C15.8361 20.4047 14.4357 22.0125 12.9528 23.5425L12.8784 23.6181L12.858 23.6385L12.8508 23.6457L12 22.7997ZM12 13.1998C12.9548 13.1998 13.8704 12.8205 14.5456 12.1454C15.2207 11.4703 15.6 10.5546 15.6 9.59986C15.6 8.6451 15.2207 7.72943 14.5456 7.05431C13.8704 6.37919 12.9548 5.99991 12 5.99991C11.0452 5.99991 10.1296 6.37919 9.45446 7.05431C8.77934 7.72943 8.40006 8.6451 8.40006 9.59986C8.40006 10.5546 8.77934 11.4703 9.45446 12.1454C10.1296 12.8205 11.0452 13.1998 12 13.1998Z" fill="#E66A47"/>
<circle cx="12" cy="9.67967" r="6.40233" fill="white"/>
<mask id="mask0_1397_6796" style="mask-type:alpha" maskUnits="userSpaceOnUse" x="8" y="5" width="8" height="9">
<rect width="8" height="8" transform="matrix(-1 0 0 1 16 5.67969)" fill="#D9D9D9"/>
</mask>
<g mask="url(#mask0_1397_6796)">
<path d="M9.46668 12.6797L11.5833 10.5631L11.1167 10.0964L9.00002 12.2131L9.46668 12.6797ZM14.0167 12.4464C14.35 12.1131 14.5972 11.7381 14.7583 11.3214C14.9195 10.9047 15 10.4797 15 10.0464C15 9.61305 14.9195 9.19083 14.7583 8.77972C14.5972 8.36861 14.35 7.99639 14.0167 7.66305C13.6833 7.32972 13.3097 7.08111 12.8958 6.91722C12.482 6.75333 12.0583 6.67139 11.625 6.67139C11.1917 6.67139 10.7681 6.75333 10.3542 6.91722C9.94029 7.08111 9.56668 7.32972 9.23335 7.66305L14.0167 12.4464ZM13.95 11.4297L13.5 10.9797C13.5889 10.8631 13.6736 10.7436 13.7542 10.6214C13.8347 10.4992 13.9083 10.3769 13.975 10.2547C14.0417 10.1325 14.1 10.0103 14.15 9.88805C14.2 9.76583 14.2445 9.64639 14.2833 9.52972C14.3445 9.8575 14.3486 10.1853 14.2958 10.5131C14.2431 10.8408 14.1278 11.1464 13.95 11.4297ZM13.0167 10.5131L11.1667 8.64639C11.4056 8.46305 11.6458 8.31444 11.8875 8.20055C12.1292 8.08666 12.3556 8.00889 12.5667 7.96722C12.7778 7.92555 12.9681 7.91861 13.1375 7.94639C13.307 7.97416 13.4389 8.03528 13.5333 8.12972C13.6278 8.22972 13.6889 8.36444 13.7167 8.53389C13.7445 8.70333 13.7375 8.895 13.6958 9.10889C13.6542 9.32278 13.5764 9.54916 13.4625 9.78805C13.3486 10.0269 13.2 10.2686 13.0167 10.5131ZM10.7 8.17972L10.2333 7.72972C10.5278 7.55194 10.8389 7.43528 11.1667 7.37972C11.4945 7.32416 11.8222 7.32972 12.15 7.39639C12.0278 7.43528 11.9056 7.47972 11.7833 7.52972C11.6611 7.57972 11.5389 7.63666 11.4167 7.70055C11.2945 7.76444 11.1736 7.83666 11.0542 7.91722C10.9347 7.99778 10.8167 8.08528 10.7 8.17972Z" fill="#E66A47"/>
</g>
</svg>
