<svg width="24" height="24" viewBox="0 0 24 24" fill="none" xmlns="http://www.w3.org/2000/svg">
<path fill-rule="evenodd" clip-rule="evenodd" d="M12 22.7997L12.8496 23.6469C12.7381 23.7588 12.6056 23.8476 12.4597 23.9082C12.3138 23.9688 12.1574 24 11.9994 24C11.8414 24 11.685 23.9688 11.5391 23.9082C11.3932 23.8476 11.2607 23.7588 11.1492 23.6469L11.142 23.6385L11.1216 23.6181L11.0472 23.5425C10.6243 23.1067 10.2082 22.6642 9.79924 22.2153C8.77292 21.0899 7.78982 19.9259 6.85208 18.7257C5.7817 17.3457 4.68731 15.7858 3.85573 14.245C3.04214 12.7342 2.40015 11.0974 2.40015 9.59986C2.40015 4.15314 6.71048 0 12 0C17.2895 0 21.5999 4.15314 21.5999 9.59986C21.5999 11.0974 20.9579 12.7342 20.1443 14.2438C19.3127 15.787 18.2195 17.3457 17.1479 18.7257C15.8361 20.4047 14.4357 22.0125 12.9528 23.5425L12.8784 23.6181L12.858 23.6385L12.8508 23.6457L12 22.7997ZM12 13.1998C12.9548 13.1998 13.8704 12.8205 14.5456 12.1454C15.2207 11.4703 15.6 10.5546 15.6 9.59986C15.6 8.6451 15.2207 7.72943 14.5456 7.05431C13.8704 6.37919 12.9548 5.99991 12 5.99991C11.0452 5.99991 10.1296 6.37919 9.45446 7.05431C8.77934 7.72943 8.40006 8.6451 8.40006 9.59986C8.40006 10.5546 8.77934 11.4703 9.45446 12.1454C10.1296 12.8205 11.0452 13.1998 12 13.1998Z" fill="#E66A47"/>
<circle cx="12" cy="9.67967" r="6.40233" fill="white"/>
<mask id="mask0_1397_6846" style="mask-type:alpha" maskUnits="userSpaceOnUse" x="8" y="5" width="8" height="9">
<rect x="8" y="5.67969" width="8" height="8" fill="#D9D9D9"/>
</mask>
<g mask="url(#mask0_1397_6846)">
<path d="M11.1667 13.0129C10.75 13.0129 10.3958 12.867 10.1042 12.5754C9.81249 12.2837 9.66666 11.9295 9.66666 11.5129C9.66666 11.3184 9.71388 11.1392 9.80832 10.9754C9.90277 10.8115 10.0778 10.6017 10.3333 10.3462C10.3667 10.3129 10.3986 10.2781 10.4292 10.242C10.4597 10.2059 10.5 10.1573 10.55 10.0962C10.2667 9.66286 10.0486 9.20869 9.89582 8.73369C9.74305 8.25869 9.66666 7.79619 9.66666 7.34619C9.66666 7.02397 9.72499 6.77675 9.84166 6.60452C9.95832 6.4323 10.1222 6.34619 10.3333 6.34619C10.65 6.34619 10.9333 6.49897 11.1833 6.80452C11.4333 7.11008 11.6222 7.39064 11.75 7.64619C11.8 7.7573 11.8458 7.8698 11.8875 7.98369C11.9292 8.09758 11.9667 8.21564 12 8.33786C12.0333 8.21564 12.0708 8.09758 12.1125 7.98369C12.1542 7.8698 12.2028 7.7573 12.2583 7.64619C12.3805 7.39064 12.5667 7.11008 12.8167 6.80452C13.0667 6.49897 13.35 6.34619 13.6667 6.34619C13.8778 6.34619 14.0417 6.4323 14.1583 6.60452C14.275 6.77675 14.3333 7.02397 14.3333 7.34619C14.3333 7.79619 14.2569 8.25869 14.1042 8.73369C13.9514 9.20869 13.7333 9.66286 13.45 10.0962C13.5 10.1573 13.5403 10.2059 13.5708 10.242C13.6014 10.2781 13.6333 10.3129 13.6667 10.3462C13.9222 10.6017 14.0972 10.8115 14.1917 10.9754C14.2861 11.1392 14.3333 11.3184 14.3333 11.5129C14.3333 11.9295 14.1875 12.2837 13.8958 12.5754C13.6042 12.867 13.25 13.0129 12.8333 13.0129C12.5833 13.0129 12.3819 12.9851 12.2292 12.9295L12 12.8462L11.7708 12.9295C11.618 12.9851 11.4167 13.0129 11.1667 13.0129ZM11.1667 12.3462C11.2944 12.3462 11.4222 12.3309 11.55 12.3004C11.6778 12.2698 11.7972 12.224 11.9083 12.1629C11.8472 12.1351 11.7917 12.0879 11.7417 12.0212C11.6917 11.9545 11.6667 11.8962 11.6667 11.8462C11.6667 11.8017 11.6986 11.7629 11.7625 11.7295C11.8264 11.6962 11.9055 11.6795 12 11.6795C12.0944 11.6795 12.1736 11.6962 12.2375 11.7295C12.3014 11.7629 12.3333 11.8017 12.3333 11.8462C12.3333 11.8962 12.3083 11.9545 12.2583 12.0212C12.2083 12.0879 12.1528 12.1351 12.0917 12.1629C12.2028 12.224 12.3222 12.2698 12.45 12.3004C12.5778 12.3309 12.7055 12.3462 12.8333 12.3462C13.0667 12.3462 13.2639 12.2656 13.425 12.1045C13.5861 11.9434 13.6667 11.7462 13.6667 11.5129C13.6667 11.4129 13.6389 11.3156 13.5833 11.2212C13.5278 11.1267 13.4444 11.0323 13.3333 10.9379C13.2555 10.8712 13.1917 10.8129 13.1417 10.7629C13.0917 10.7129 13.0111 10.6184 12.9 10.4795C12.7389 10.2851 12.6055 10.1587 12.5 10.1004C12.3944 10.042 12.2278 10.0129 12 10.0129C11.7722 10.0129 11.6042 10.042 11.4958 10.1004C11.3875 10.1587 11.2555 10.2851 11.1 10.4795C10.9889 10.6184 10.9083 10.7129 10.8583 10.7629C10.8083 10.8129 10.7444 10.8712 10.6667 10.9379C10.5555 11.0323 10.4722 11.1267 10.4167 11.2212C10.3611 11.3156 10.3333 11.4129 10.3333 11.5129C10.3333 11.7462 10.4139 11.9434 10.575 12.1045C10.7361 12.2656 10.9333 12.3462 11.1667 12.3462ZM11.5 11.2629C11.4555 11.2629 11.4167 11.2379 11.3833 11.1879C11.35 11.1379 11.3333 11.0795 11.3333 11.0129C11.3333 10.9462 11.35 10.8879 11.3833 10.8379C11.4167 10.7879 11.4555 10.7629 11.5 10.7629C11.5444 10.7629 11.5833 10.7879 11.6167 10.8379C11.65 10.8879 11.6667 10.9462 11.6667 11.0129C11.6667 11.0795 11.65 11.1379 11.6167 11.1879C11.5833 11.2379 11.5444 11.2629 11.5 11.2629ZM12.5 11.2629C12.4555 11.2629 12.4167 11.2379 12.3833 11.1879C12.35 11.1379 12.3333 11.0795 12.3333 11.0129C12.3333 10.9462 12.35 10.8879 12.3833 10.8379C12.4167 10.7879 12.4555 10.7629 12.5 10.7629C12.5444 10.7629 12.5833 10.7879 12.6167 10.8379C12.65 10.8879 12.6667 10.9462 12.6667 11.0129C12.6667 11.0795 12.65 11.1379 12.6167 11.1879C12.5833 11.2379 12.5444 11.2629 12.5 11.2629ZM11.025 9.60452C11.0861 9.56008 11.1555 9.52119 11.2333 9.48786C11.3111 9.45452 11.3972 9.42397 11.4917 9.39619C11.4805 9.12952 11.4403 8.86425 11.3708 8.60036C11.3014 8.33647 11.2139 8.09619 11.1083 7.87952C11.0028 7.6573 10.8861 7.4698 10.7583 7.31702C10.6305 7.16425 10.5028 7.06564 10.375 7.02119C10.3639 7.05452 10.3542 7.09758 10.3458 7.15036C10.3375 7.20314 10.3333 7.26841 10.3333 7.34619C10.3333 7.72397 10.393 8.1073 10.5125 8.49619C10.6319 8.88508 10.8028 9.25452 11.025 9.60452ZM12.975 9.60452C13.1972 9.25452 13.368 8.88508 13.4875 8.49619C13.6069 8.1073 13.6667 7.72397 13.6667 7.34619C13.6667 7.26841 13.6625 7.20314 13.6542 7.15036C13.6458 7.09758 13.6361 7.05452 13.625 7.02119C13.4972 7.06564 13.3694 7.16425 13.2417 7.31702C13.1139 7.4698 12.9972 7.6573 12.8917 7.87952C12.7917 8.09619 12.7069 8.33647 12.6375 8.60036C12.568 8.86425 12.525 9.12952 12.5083 9.39619C12.5917 9.41841 12.6722 9.44758 12.75 9.48369C12.8278 9.5198 12.9028 9.56008 12.975 9.60452Z" fill="#E66A47"/>
</g>
</svg>
