<svg width="24" height="24" viewBox="0 0 24 24" fill="none" xmlns="http://www.w3.org/2000/svg">
<g clip-path="url(#clip0_1570_6914)">
<rect x="0.5" y="0.5" width="23" height="23" rx="11.5" fill="#E66A47"/>
<rect x="0.5" y="0.5" width="23" height="23" rx="11.5" stroke="white"/>
<mask id="mask0_1570_6914" style="mask-type:alpha" maskUnits="userSpaceOnUse" x="5" y="5" width="14" height="14">
<rect x="5" y="5" width="14" height="14" fill="#D9D9D9"/>
</mask>
<g mask="url(#mask0_1570_6914)">
<path d="M12 17.2501L11.1542 16.4917C10.1722 15.607 9.36042 14.8438 8.71876 14.2021C8.07709 13.5605 7.56667 12.9844 7.18751 12.474C6.80834 11.9636 6.54341 11.4945 6.39271 11.0667C6.24202 10.639 6.16667 10.2015 6.16667 9.75423C6.16667 8.84034 6.47292 8.07715 7.08542 7.46465C7.69792 6.85215 8.46112 6.5459 9.37501 6.5459C9.88056 6.5459 10.3618 6.65284 10.8188 6.86673C11.2757 7.08062 11.6694 7.38201 12 7.7709C12.3306 7.38201 12.7243 7.08062 13.1813 6.86673C13.6382 6.65284 14.1194 6.5459 14.625 6.5459C15.5389 6.5459 16.3021 6.85215 16.9146 7.46465C17.5271 8.07715 17.8333 8.84034 17.8333 9.75423C17.8333 10.2015 17.758 10.639 17.6073 11.0667C17.4566 11.4945 17.1917 11.9636 16.8125 12.474C16.4333 12.9844 15.9229 13.5605 15.2813 14.2021C14.6396 14.8438 13.8278 15.607 12.8458 16.4917L12 17.2501Z" fill="white"/>
</g>
</g>
<defs>
<clipPath id="clip0_1570_6914">
<rect width="24" height="24" fill="white"/>
</clipPath>
</defs>
</svg>
