<svg width="24" height="24" viewBox="0 0 24 24" fill="none" xmlns="http://www.w3.org/2000/svg">
<path fill-rule="evenodd" clip-rule="evenodd" d="M12 22.7997L12.8496 23.6469C12.7381 23.7588 12.6056 23.8476 12.4597 23.9082C12.3138 23.9688 12.1574 24 11.9994 24C11.8414 24 11.685 23.9688 11.5391 23.9082C11.3932 23.8476 11.2607 23.7588 11.1492 23.6469L11.142 23.6385L11.1216 23.6181L11.0472 23.5425C10.6243 23.1067 10.2082 22.6642 9.79924 22.2153C8.77292 21.0899 7.78982 19.9259 6.85208 18.7257C5.7817 17.3457 4.68731 15.7858 3.85573 14.245C3.04214 12.7342 2.40015 11.0974 2.40015 9.59986C2.40015 4.15314 6.71048 0 12 0C17.2895 0 21.5999 4.15314 21.5999 9.59986C21.5999 11.0974 20.9579 12.7342 20.1443 14.2438C19.3127 15.787 18.2195 17.3457 17.1479 18.7257C15.8361 20.4047 14.4357 22.0125 12.9528 23.5425L12.8784 23.6181L12.858 23.6385L12.8508 23.6457L12 22.7997ZM12 13.1998C12.9548 13.1998 13.8704 12.8205 14.5456 12.1454C15.2207 11.4703 15.6 10.5546 15.6 9.59986C15.6 8.6451 15.2207 7.72943 14.5456 7.05431C13.8704 6.37919 12.9548 5.99991 12 5.99991C11.0452 5.99991 10.1296 6.37919 9.45446 7.05431C8.77934 7.72943 8.40006 8.6451 8.40006 9.59986C8.40006 10.5546 8.77934 11.4703 9.45446 12.1454C10.1296 12.8205 11.0452 13.1998 12 13.1998Z" fill="#E66A47"/>
<circle cx="12" cy="9.67967" r="6.40233" fill="white"/>
<mask id="mask0_1397_6800" style="mask-type:alpha" maskUnits="userSpaceOnUse" x="8" y="5" width="8" height="9">
<rect x="8" y="5.67969" width="8" height="8" fill="#D9D9D9"/>
</mask>
<g mask="url(#mask0_1397_6800)">
<path d="M9.45834 12.6797L8.99167 12.213L12.4083 8.79635C12.3083 8.56302 12.2944 8.29913 12.3667 8.00469C12.4389 7.71024 12.5972 7.44635 12.8417 7.21302C13.1361 6.91858 13.4639 6.74635 13.825 6.69635C14.1861 6.64635 14.4806 6.73524 14.7083 6.96302C14.9361 7.1908 15.025 7.48524 14.975 7.84635C14.925 8.20747 14.7528 8.53524 14.4583 8.82969C14.225 9.07413 13.9611 9.23247 13.6667 9.30469C13.3722 9.37691 13.1083 9.36302 12.875 9.26302L12.4583 9.67969L14.9917 12.213L14.525 12.6797L11.9917 10.163L9.45834 12.6797ZM10.4417 9.82969L9.44167 8.82969C9.14167 8.52969 8.99167 8.17135 8.99167 7.75469C8.99167 7.33802 9.14167 6.97969 9.44167 6.67969L11.5083 8.76302L10.4417 9.82969Z" fill="#E66A47"/>
</g>
</svg>
