<svg width="24" height="24" viewBox="0 0 24 24" fill="none" xmlns="http://www.w3.org/2000/svg">
<g clip-path="url(#clip0_1570_6969)">
<rect x="0.5" y="0.5" width="23" height="23" rx="11.5" fill="#F38787"/>
<rect x="0.5" y="0.5" width="23" height="23" rx="11.5" stroke="white"/>
<mask id="mask0_1570_6969" style="mask-type:alpha" maskUnits="userSpaceOnUse" x="5" y="5" width="14" height="14">
<rect x="5" y="5" width="14" height="14" fill="#D9D9D9"/>
</mask>
<g mask="url(#mask0_1570_6969)">
<path d="M6.16668 17.8334C6.44862 17.114 6.63577 16.3727 6.72814 15.6095C6.8205 14.8463 6.8764 14.0806 6.89584 13.3126C6.51668 13.1667 6.20314 12.9237 5.95522 12.5834C5.7073 12.2431 5.58334 11.8542 5.58334 11.4167V10.2501C6.7014 9.88064 7.84133 9.31675 9.00314 8.55841C10.1649 7.80008 11.1639 7.00286 12 6.16675C12.8361 7.00286 13.8351 7.80008 14.9969 8.55841C16.1587 9.31675 17.2986 9.88064 18.4167 10.2501V11.4167C18.4167 11.8542 18.2927 12.2431 18.0448 12.5834C17.7969 12.9237 17.4833 13.1667 17.1042 13.3126C17.1236 14.0806 17.1795 14.8463 17.2719 15.6095C17.3642 16.3727 17.5514 17.114 17.8333 17.8334H6.16668ZM8.44168 10.2501H15.5583C14.8 9.8223 14.117 9.38237 13.5094 8.93029C12.9017 8.47821 12.3986 8.08203 12 7.74175C11.6014 8.08203 11.0983 8.47821 10.4906 8.93029C9.883 9.38237 9.20001 9.8223 8.44168 10.2501ZM13.4583 12.2917C13.7014 12.2917 13.908 12.2067 14.0781 12.0365C14.2483 11.8664 14.3333 11.6598 14.3333 11.4167H12.5833C12.5833 11.6598 12.6684 11.8664 12.8386 12.0365C13.0087 12.2067 13.2153 12.2917 13.4583 12.2917ZM10.5417 12.2917C10.7847 12.2917 10.9913 12.2067 11.1615 12.0365C11.3316 11.8664 11.4167 11.6598 11.4167 11.4167H9.66668C9.66668 11.6598 9.75175 11.8664 9.92189 12.0365C10.092 12.2067 10.2986 12.2917 10.5417 12.2917ZM7.62501 12.2917C7.86807 12.2917 8.07466 12.2067 8.2448 12.0365C8.41494 11.8664 8.50001 11.6598 8.50001 11.4167H6.75001C6.75001 11.6598 6.83508 11.8664 7.00522 12.0365C7.17536 12.2067 7.38195 12.2917 7.62501 12.2917ZM7.71251 16.6667H9.27293C9.36043 16.0834 9.42848 15.5049 9.47709 14.9313C9.52571 14.3577 9.56459 13.7792 9.59376 13.1959C9.50626 13.1473 9.41876 13.0963 9.33126 13.0428C9.24376 12.9893 9.16112 12.9237 9.08334 12.8459C8.93751 12.9917 8.77952 13.1108 8.60939 13.2032C8.43925 13.2956 8.25695 13.3661 8.06251 13.4147C8.04307 13.9688 8.00904 14.5157 7.96043 15.0553C7.91182 15.5949 7.82918 16.132 7.71251 16.6667ZM10.4542 16.6667H13.5458C13.4681 16.132 13.4073 15.5973 13.3636 15.0626C13.3198 14.5279 13.2833 13.9883 13.2542 13.4438C13.0014 13.4244 12.7705 13.3636 12.5615 13.2615C12.3524 13.1595 12.1653 13.0258 12 12.8605C11.8347 13.0258 11.6427 13.1595 11.424 13.2615C11.2052 13.3636 10.9792 13.4244 10.7458 13.4438C10.7167 13.9883 10.6802 14.5279 10.6365 15.0626C10.5927 15.5973 10.532 16.132 10.4542 16.6667ZM14.7271 16.6667H16.2875C16.1708 16.132 16.0882 15.5949 16.0396 15.0553C15.991 14.5157 15.957 13.9688 15.9375 13.4147C15.7431 13.3661 15.5583 13.2956 15.3833 13.2032C15.2083 13.1108 15.0528 12.9917 14.9167 12.8459C14.8389 12.9237 14.7563 12.9893 14.6688 13.0428C14.5813 13.0963 14.4938 13.1473 14.4063 13.1959C14.4354 13.7792 14.4767 14.3577 14.5302 14.9313C14.5837 15.5049 14.6493 16.0834 14.7271 16.6667ZM16.375 12.2917C16.6181 12.2917 16.8247 12.2067 16.9948 12.0365C17.1649 11.8664 17.25 11.6598 17.25 11.4167H15.5C15.5 11.6598 15.5851 11.8664 15.7552 12.0365C15.9254 12.2067 16.132 12.2917 16.375 12.2917Z" fill="white"/>
</g>
</g>
<defs>
<clipPath id="clip0_1570_6969">
<rect width="24" height="24" fill="white"/>
</clipPath>
</defs>
</svg>
